<svg id="svg" version="1.1" xmlns="http://www.w3.org/2000/svg" xmlns:xlink="http://www.w3.org/1999/xlink" width="400" height="389.08045977011494" viewBox="0, 0, 400,389.08045977011494"><g id="svgg"><path id="path0" d="M209.741 82.076 C 209.288 82.922,209.223 84.070,209.575 84.988 C 209.789 85.545,215.000 85.603,264.619 85.603 C 318.409 85.603,319.435 85.617,319.831 86.356 C 320.105 86.868,320.233 114.975,320.233 174.410 C 320.233 241.793,320.340 261.819,320.700 262.179 C 321.376 262.854,322.630 262.731,323.638 261.890 L 324.514 261.159 324.514 171.241 L 324.514 81.323 267.329 81.323 C 211.190 81.323,210.137 81.337,209.741 82.076 M119.844 84.647 C 118.667 84.941,117.191 85.188,116.565 85.198 C 115.938 85.207,114.887 85.381,114.230 85.586 C 113.049 85.953,110.219 86.764,107.198 87.600 C 106.342 87.837,105.117 88.260,104.475 88.539 C 103.833 88.819,102.607 89.344,101.751 89.707 C 83.496 97.439,68.862 112.492,61.671 130.934 C 59.191 137.296,58.996 137.932,57.965 142.996 C 56.037 152.475,55.657 162.784,56.955 170.428 C 57.337 172.675,57.741 175.214,57.853 176.070 C 57.965 176.926,58.214 177.793,58.406 177.996 C 58.598 178.199,58.754 178.725,58.753 179.163 C 58.750 180.225,59.557 182.704,61.670 188.132 C 66.888 201.539,76.352 213.521,88.516 222.122 C 92.318 224.810,98.033 227.945,102.140 229.596 C 102.568 229.768,103.531 230.162,104.280 230.473 C 107.372 231.754,112.723 233.207,116.732 233.853 C 117.909 234.042,119.572 234.391,120.428 234.628 C 122.504 235.201,138.337 234.966,141.440 234.315 C 142.724 234.046,144.650 233.648,145.720 233.431 C 146.790 233.214,149.154 232.586,150.973 232.035 C 154.309 231.024,154.576 230.929,157.393 229.753 C 158.249 229.396,159.300 228.966,159.728 228.797 C 161.204 228.215,165.176 226.264,165.370 226.025 C 165.477 225.894,165.958 225.663,166.440 225.513 C 166.921 225.362,167.315 225.076,167.315 224.877 C 167.315 224.677,167.488 224.514,167.699 224.514 C 168.159 224.514,171.060 222.605,174.054 220.331 C 176.719 218.307,177.134 218.288,178.245 220.136 C 178.728 220.939,180.493 223.557,182.168 225.956 C 183.843 228.354,185.214 230.472,185.214 230.662 C 185.214 230.852,185.547 231.309,185.954 231.678 C 186.615 232.276,186.672 232.750,186.486 236.129 C 186.184 241.613,185.281 240.349,201.124 256.633 C 204.465 260.067,208.862 264.621,210.895 266.753 C 212.928 268.884,216.780 272.909,219.455 275.698 C 222.130 278.486,227.558 284.169,231.518 288.328 C 243.018 300.407,260.768 318.729,264.577 322.453 C 269.844 327.602,273.842 326.690,281.330 318.635 C 286.790 312.760,286.967 312.438,286.957 308.402 C 286.946 303.936,288.412 305.827,271.241 288.130 C 268.333 285.132,263.588 280.230,260.696 277.235 C 257.805 274.240,250.949 267.150,245.460 261.479 C 239.972 255.807,235.006 250.642,234.424 250.000 C 233.842 249.358,230.543 245.940,227.092 242.404 C 223.641 238.869,218.011 233.087,214.582 229.556 C 206.413 221.143,204.196 219.762,200.779 220.953 C 199.082 221.545,197.390 221.521,197.004 220.901 C 196.833 220.626,195.817 219.711,194.747 218.869 C 193.677 218.026,192.176 216.807,191.412 216.159 C 190.648 215.511,188.942 214.105,187.621 213.035 C 184.734 210.696,184.681 210.240,187.001 207.660 C 192.109 201.978,198.355 190.116,200.663 181.712 C 200.986 180.535,201.423 178.959,201.633 178.210 C 201.844 177.461,202.157 175.973,202.329 174.903 C 202.501 173.833,202.866 171.819,203.139 170.428 C 203.794 167.104,203.793 152.496,203.138 148.833 C 202.870 147.335,202.505 145.233,202.326 144.163 C 202.146 143.093,201.842 141.518,201.649 140.661 C 201.300 139.114,201.171 138.692,199.569 133.852 C 194.712 119.184,182.756 103.947,169.650 95.726 C 168.473 94.988,167.422 94.285,167.315 94.164 C 167.076 93.894,158.930 89.896,157.588 89.390 C 157.053 89.188,156.089 88.804,155.447 88.537 C 154.805 88.269,153.667 87.874,152.918 87.658 C 148.706 86.446,146.761 85.883,145.692 85.567 C 145.035 85.373,143.984 85.208,143.358 85.200 C 142.731 85.193,141.167 84.933,139.883 84.623 C 136.750 83.866,122.906 83.883,119.844 84.647 M140.467 93.458 C 141.216 93.676,142.617 94.001,143.580 94.179 C 147.545 94.914,150.809 95.923,154.339 97.505 C 155.013 97.807,155.757 98.054,155.993 98.054 C 156.228 98.054,156.420 98.230,156.420 98.444 C 156.420 98.658,156.656 98.833,156.945 98.833 C 157.562 98.833,162.561 101.410,163.455 102.189 C 163.793 102.483,164.199 102.724,164.358 102.724 C 166.729 102.724,178.379 113.912,182.997 120.623 C 187.198 126.729,189.554 131.392,191.646 137.743 C 192.174 139.348,192.813 141.274,193.065 142.023 C 194.953 147.640,195.805 162.167,194.661 169.261 C 193.790 174.665,193.509 176.066,193.100 177.043 C 192.875 177.578,192.293 179.329,191.804 180.934 C 187.816 194.050,177.386 207.785,165.370 215.747 C 159.967 219.326,149.260 224.125,146.675 224.125 C 146.128 224.125,145.515 224.280,145.311 224.470 C 142.987 226.646,116.936 226.646,114.611 224.470 C 114.408 224.280,113.749 224.125,113.146 224.125 C 112.544 224.125,111.748 223.965,111.376 223.770 C 111.004 223.575,109.825 223.124,108.755 222.767 C 107.685 222.410,106.459 221.973,106.031 221.795 C 105.603 221.617,104.990 221.369,104.669 221.244 C 104.348 221.119,103.823 220.855,103.502 220.657 C 103.181 220.460,102.305 220.019,101.556 219.677 C 92.899 215.729,82.244 206.415,76.824 198.054 C 76.199 197.091,75.590 196.216,75.469 196.109 C 74.840 195.549,70.428 187.331,70.428 186.718 C 70.428 186.531,70.030 185.547,69.544 184.531 C 69.057 183.516,68.424 181.897,68.137 180.934 C 67.849 179.971,67.438 178.658,67.223 178.016 C 66.796 176.737,66.524 175.497,65.515 170.233 C 64.235 163.556,64.619 153.060,66.475 143.969 C 66.871 142.027,68.995 135.478,69.819 133.658 C 71.837 129.200,74.860 123.462,75.458 122.957 C 75.585 122.850,76.199 121.975,76.824 121.012 C 81.447 113.882,91.020 104.955,98.005 101.263 C 104.691 97.728,106.120 97.137,114.230 94.545 C 114.887 94.335,115.905 94.163,116.493 94.163 C 117.080 94.163,117.943 93.955,118.411 93.699 C 120.267 92.686,137.182 92.500,140.467 93.458 M239.319 108.409 C 238.169 109.377,238.157 109.421,238.818 110.330 L 239.494 111.260 268.116 111.272 C 299.130 111.285,298.444 111.332,297.922 109.254 C 297.483 107.504,296.995 107.475,268.011 107.446 L 240.496 107.419 239.319 108.409 M234.301 131.466 C 233.239 132.386,233.249 132.737,234.366 133.787 L 235.270 134.636 265.743 134.642 C 298.550 134.650,298.054 134.680,298.054 132.698 C 298.054 130.700,298.695 130.739,265.732 130.739 C 236.422 130.739,235.103 130.770,234.301 131.466 M238.666 154.692 C 238.048 155.634,238.055 155.741,238.796 156.734 L 239.578 157.782 268.202 157.882 C 299.644 157.991,298.054 158.108,298.054 155.692 C 298.054 153.620,299.196 153.696,268.219 153.696 L 239.318 153.696 238.666 154.692 M238.771 177.472 C 238.247 178.219,238.285 178.388,239.202 179.417 L 240.206 180.545 268.279 180.545 C 298.969 180.545,298.054 180.612,298.054 178.362 C 298.054 176.622,298.612 176.654,268.143 176.654 L 239.344 176.654 238.771 177.472 M260.232 204.103 C 259.838 204.969,259.904 205.217,260.752 206.065 L 261.723 207.036 278.922 207.025 C 297.295 207.013,298.054 206.936,298.054 205.074 C 298.054 203.123,297.952 203.113,278.658 203.113 L 260.684 203.113 260.232 204.103 " stroke="none" fill="#343434" fill-rule="evenodd"></path><path id="path1" d="M177.269 7.612 C 174.290 7.894,171.051 8.303,170.070 8.520 C 169.090 8.737,167.193 9.027,165.855 9.165 C 164.517 9.302,163.336 9.556,163.230 9.728 C 163.123 9.900,161.985 10.162,160.700 10.311 C 159.416 10.460,158.277 10.723,158.171 10.895 C 158.065 11.067,156.927 11.329,155.643 11.479 C 154.358 11.628,153.307 11.887,153.307 12.056 C 153.307 12.224,152.347 12.482,151.173 12.628 C 150.000 12.775,148.945 13.048,148.830 13.234 C 148.714 13.421,147.836 13.691,146.878 13.835 C 145.920 13.979,145.136 14.229,145.136 14.391 C 145.136 14.553,144.261 14.802,143.191 14.944 C 142.121 15.086,141.245 15.349,141.245 15.528 C 141.245 15.707,140.545 15.966,139.689 16.103 C 138.833 16.240,138.132 16.514,138.132 16.712 C 138.132 16.911,137.344 17.191,136.381 17.336 C 135.418 17.480,134.630 17.753,134.630 17.943 C 134.630 18.133,134.372 18.288,134.057 18.288 C 133.026 18.288,125.146 21.091,123.060 22.199 C 121.939 22.795,120.495 23.398,119.850 23.540 C 119.205 23.681,118.677 23.939,118.677 24.113 C 118.677 24.287,118.197 24.550,117.611 24.697 C 117.025 24.844,116.455 25.082,116.346 25.226 C 116.237 25.369,115.360 25.894,114.397 26.391 C 111.706 27.781,110.331 28.574,110.113 28.860 C 110.004 29.004,109.435 29.242,108.848 29.389 C 108.262 29.536,107.782 29.799,107.782 29.972 C 107.782 30.146,107.257 30.404,106.615 30.545 C 105.973 30.686,105.447 30.943,105.447 31.117 C 105.447 31.291,104.983 31.550,104.415 31.692 C 103.847 31.835,102.634 32.467,101.718 33.096 C 100.803 33.726,99.947 34.241,99.817 34.241 C 99.579 34.241,97.254 35.802,96.887 36.207 C 96.780 36.326,95.992 36.841,95.136 37.353 C 94.280 37.865,93.440 38.513,93.269 38.792 C 93.097 39.071,92.703 39.300,92.393 39.300 C 92.083 39.300,91.824 39.431,91.818 39.591 C 91.813 39.752,91.112 40.312,90.262 40.837 C 89.412 41.362,88.716 41.931,88.716 42.102 C 88.716 42.273,88.448 42.412,88.120 42.412 C 87.792 42.412,87.426 42.668,87.306 42.981 C 87.186 43.294,86.710 43.667,86.248 43.810 C 85.295 44.105,80.512 47.726,80.039 48.511 C 79.868 48.795,79.541 49.027,79.313 49.027 C 79.084 49.027,78.236 49.708,77.428 50.541 C 76.621 51.373,75.685 52.208,75.351 52.395 C 72.968 53.728,58.706 67.882,55.642 71.953 C 55.107 72.664,54.363 73.526,53.988 73.869 C 53.614 74.212,53.307 74.642,53.307 74.825 C 53.307 75.007,52.782 75.682,52.140 76.324 C 51.498 76.966,50.973 77.663,50.973 77.873 C 50.973 78.082,50.477 78.726,49.870 79.302 C 48.542 80.565,45.371 84.750,45.022 85.700 C 44.884 86.075,44.610 86.381,44.412 86.381 C 44.215 86.381,43.943 86.819,43.809 87.354 C 43.675 87.889,43.393 88.327,43.183 88.327 C 42.973 88.327,42.802 88.595,42.802 88.923 C 42.802 89.250,42.555 89.613,42.253 89.729 C 41.951 89.845,41.598 90.365,41.467 90.884 C 41.337 91.404,41.059 91.829,40.849 91.829 C 40.639 91.829,40.467 92.053,40.467 92.326 C 40.467 92.599,40.117 93.123,39.689 93.489 C 39.261 93.856,38.911 94.420,38.911 94.743 C 38.911 95.066,38.776 95.331,38.611 95.331 C 38.446 95.331,37.877 96.162,37.346 97.179 C 36.815 98.196,36.294 99.115,36.187 99.222 C 35.828 99.580,35.042 100.955,33.962 103.113 C 33.372 104.290,32.793 105.340,32.675 105.447 C 32.557 105.554,31.680 107.218,30.725 109.144 C 29.770 111.070,28.871 112.735,28.727 112.844 C 28.584 112.954,28.339 113.566,28.183 114.206 C 28.027 114.846,27.663 115.715,27.374 116.137 C 27.085 116.559,26.848 117.141,26.848 117.430 C 26.848 117.718,26.586 118.217,26.265 118.538 C 25.944 118.859,25.681 119.459,25.681 119.872 C 25.681 120.285,25.514 120.623,25.309 120.623 C 25.105 120.623,24.823 121.235,24.682 121.984 C 24.542 122.733,24.279 123.346,24.099 123.346 C 23.918 123.346,23.655 123.961,23.514 124.712 C 23.373 125.464,23.103 126.175,22.913 126.292 C 22.723 126.409,22.568 126.775,22.568 127.104 C 22.568 127.434,22.313 128.255,22.002 128.930 C 21.136 130.803,20.219 133.467,19.770 135.409 C 19.548 136.372,19.218 137.343,19.038 137.568 C 18.858 137.793,18.594 138.712,18.450 139.611 C 18.306 140.510,18.052 141.245,17.886 141.245 C 17.719 141.245,17.462 142.120,17.315 143.190 C 17.168 144.260,16.905 145.223,16.732 145.331 C 16.558 145.438,16.292 146.445,16.141 147.569 C 15.990 148.692,15.732 149.786,15.568 150.000 C 15.403 150.214,15.082 151.352,14.854 152.529 C 14.625 153.706,14.262 155.457,14.046 156.420 C 13.829 157.383,13.645 158.880,13.636 159.747 C 13.626 160.614,13.460 161.489,13.267 161.693 C 12.895 162.084,12.316 166.674,11.627 174.708 C 10.907 183.098,11.439 211.879,12.433 218.288 C 12.881 221.177,13.421 224.767,13.634 226.265 C 13.847 227.763,14.182 229.426,14.380 229.961 C 14.577 230.496,14.857 231.722,15.001 232.685 C 15.145 233.648,15.396 234.611,15.559 234.825 C 15.722 235.039,15.981 236.089,16.135 237.160 C 16.289 238.230,16.552 239.280,16.719 239.494 C 16.886 239.708,17.142 240.711,17.289 241.722 C 17.435 242.734,17.710 243.657,17.899 243.774 C 18.088 243.891,18.361 244.771,18.504 245.729 C 18.648 246.687,18.921 247.471,19.110 247.471 C 19.300 247.471,19.455 247.835,19.455 248.281 C 19.455 249.165,21.307 254.819,21.803 255.447 C 21.971 255.661,22.232 256.493,22.382 257.296 C 22.532 258.098,22.810 258.755,23.001 258.755 C 23.191 258.755,23.346 259.027,23.346 259.360 C 23.346 259.906,23.823 261.112,25.515 264.845 C 25.820 265.519,26.070 266.263,26.070 266.498 C 26.070 266.734,26.231 266.926,26.428 266.926 C 26.625 266.926,26.902 267.451,27.043 268.093 C 27.184 268.735,27.441 269.261,27.614 269.261 C 27.787 269.261,28.044 269.874,28.184 270.623 C 28.325 271.372,28.593 271.984,28.780 271.984 C 28.968 271.984,29.236 272.510,29.377 273.152 C 29.518 273.794,29.781 274.319,29.961 274.319 C 30.141 274.319,30.404 274.844,30.545 275.486 C 30.686 276.128,30.948 276.654,31.128 276.654 C 31.308 276.654,31.568 277.167,31.706 277.794 C 31.844 278.421,32.191 279.129,32.477 279.367 C 32.763 279.604,33.106 280.229,33.238 280.755 C 33.370 281.282,33.636 281.712,33.829 281.712 C 34.022 281.712,34.295 282.237,34.436 282.879 C 34.577 283.521,34.842 284.047,35.024 284.047 C 35.207 284.047,35.479 284.441,35.629 284.922 C 35.780 285.404,36.010 285.885,36.142 285.992 C 36.459 286.250,37.244 287.508,37.841 288.716 C 38.346 289.739,38.458 289.900,39.696 291.402 C 40.120 291.916,40.467 292.493,40.467 292.683 C 40.467 292.873,40.645 293.240,40.863 293.499 C 42.435 295.362,42.802 295.897,42.802 296.321 C 42.802 296.587,43.064 296.905,43.385 297.028 C 43.706 297.151,43.969 297.440,43.969 297.669 C 43.969 298.139,45.562 300.514,46.012 300.713 C 46.172 300.785,46.308 301.047,46.313 301.297 C 46.317 301.547,46.928 302.451,47.669 303.307 C 48.410 304.163,49.500 305.447,50.092 306.161 C 50.683 306.874,51.649 307.974,52.237 308.606 C 52.826 309.238,53.307 309.886,53.307 310.046 C 53.307 310.498,55.125 312.621,58.905 316.586 C 60.807 318.580,62.621 320.580,62.935 321.029 C 64.039 322.605,73.924 331.907,74.495 331.907 C 74.624 331.907,75.517 332.695,76.480 333.658 C 77.443 334.621,78.388 335.409,78.580 335.409 C 78.771 335.409,79.483 335.963,80.161 336.641 C 81.239 337.719,84.497 340.228,87.148 342.023 C 87.622 342.344,88.371 342.913,88.812 343.288 C 89.253 343.662,89.849 343.969,90.137 343.969 C 90.426 343.969,90.661 344.148,90.661 344.366 C 90.661 344.585,91.143 344.975,91.732 345.234 C 92.320 345.492,92.942 345.926,93.113 346.198 C 93.284 346.470,93.598 346.693,93.810 346.693 C 94.022 346.693,94.408 346.871,94.666 347.089 C 96.530 348.660,97.064 349.027,97.489 349.027 C 97.754 349.027,98.072 349.290,98.195 349.611 C 98.318 349.932,98.687 350.195,99.015 350.195 C 99.343 350.195,99.611 350.358,99.611 350.557 C 99.611 350.757,100.005 351.043,100.486 351.194 C 100.968 351.344,101.449 351.595,101.556 351.752 C 101.663 351.909,102.714 352.504,103.891 353.074 C 106.658 354.414,109.869 356.161,110.117 356.461 C 110.224 356.591,111.007 356.923,111.857 357.201 C 112.707 357.478,113.639 357.941,113.928 358.230 C 114.216 358.519,114.688 358.755,114.976 358.755 C 115.264 358.755,115.558 358.894,115.629 359.064 C 115.812 359.501,118.974 361.089,119.662 361.089 C 119.976 361.089,120.233 361.265,120.233 361.479 C 120.233 361.693,120.431 361.868,120.672 361.868 C 120.913 361.868,122.183 362.391,123.493 363.030 C 125.899 364.203,130.391 365.759,131.374 365.759 C 131.667 365.759,131.907 365.920,131.907 366.117 C 131.907 366.314,132.476 366.597,133.171 366.746 C 133.867 366.894,134.611 367.151,134.825 367.315 C 135.039 367.480,135.821 367.744,136.563 367.903 C 137.305 368.062,138.181 368.336,138.509 368.511 C 139.567 369.077,143.879 370.405,145.503 370.664 C 146.372 370.803,147.082 371.053,147.082 371.219 C 147.082 371.386,147.957 371.643,149.027 371.790 C 150.097 371.937,150.973 372.199,150.973 372.372 C 150.973 372.545,152.024 372.808,153.308 372.957 C 154.593 373.106,155.730 373.369,155.837 373.541 C 155.943 373.713,157.081 373.975,158.365 374.124 C 159.649 374.274,160.700 374.536,160.700 374.708 C 160.700 374.880,161.795 375.135,163.132 375.275 C 164.470 375.415,165.914 375.687,166.342 375.879 C 166.770 376.071,168.784 376.422,170.817 376.660 C 172.850 376.897,175.652 377.247,177.043 377.436 C 180.364 377.889,217.303 377.875,220.817 377.420 C 230.212 376.204,236.860 375.098,237.571 374.634 C 237.797 374.487,238.892 374.245,240.003 374.098 C 241.114 373.950,242.023 373.700,242.023 373.541 C 242.023 373.382,243.074 373.133,244.358 372.988 C 245.642 372.843,246.693 372.578,246.693 372.399 C 246.693 372.220,247.656 371.954,248.833 371.807 C 250.010 371.660,250.973 371.396,250.973 371.220 C 250.973 371.044,252.055 370.710,253.378 370.477 C 254.701 370.244,255.962 369.875,256.180 369.657 C 256.398 369.439,256.935 369.255,257.374 369.247 C 257.812 369.240,258.872 368.896,259.728 368.482 C 260.584 368.069,261.570 367.725,261.921 367.717 C 262.271 367.710,263.058 367.443,263.671 367.123 C 264.284 366.803,265.057 366.541,265.389 366.539 C 265.721 366.538,266.159 366.384,266.362 366.198 C 266.565 366.011,267.782 365.546,269.066 365.163 C 270.350 364.780,271.839 364.254,272.374 363.994 C 275.122 362.657,276.979 361.868,277.377 361.868 C 277.621 361.868,277.821 361.707,277.821 361.510 C 277.821 361.313,278.346 361.036,278.988 360.895 C 279.630 360.754,280.156 360.491,280.156 360.311 C 280.156 360.131,280.681 359.869,281.323 359.728 C 281.965 359.587,282.490 359.324,282.490 359.144 C 282.490 358.964,283.016 358.701,283.658 358.560 C 284.300 358.419,284.825 358.162,284.825 357.988 C 284.825 357.814,285.296 357.554,285.871 357.409 C 286.447 357.265,287.393 356.808,287.974 356.394 C 288.555 355.981,289.222 355.642,289.457 355.642 C 289.691 355.642,289.883 355.486,289.883 355.295 C 289.883 355.104,290.363 354.828,290.949 354.681 C 291.536 354.533,292.105 354.296,292.214 354.152 C 292.323 354.008,293.375 353.410,294.553 352.823 C 296.929 351.637,297.956 351.017,298.747 350.292 C 299.039 350.024,299.509 349.805,299.792 349.805 C 300.074 349.805,300.407 349.543,300.530 349.222 C 300.653 348.901,301.007 348.638,301.317 348.638 C 301.627 348.638,301.939 348.507,302.010 348.346 C 302.164 348.001,304.536 346.304,304.864 346.304 C 304.989 346.304,305.303 346.131,305.561 345.920 C 307.683 344.190,308.519 343.580,308.766 343.580 C 308.925 343.580,309.441 343.162,309.914 342.653 C 310.387 342.143,311.151 341.605,311.612 341.459 C 312.074 341.313,312.451 341.029,312.451 340.830 C 312.451 340.630,312.645 340.467,312.883 340.467 C 313.424 340.467,318.156 336.751,319.445 335.314 C 319.974 334.724,320.556 334.241,320.737 334.241 C 320.919 334.241,321.930 333.425,322.983 332.428 C 324.037 331.430,325.286 330.336,325.759 329.996 C 327.096 329.034,339.357 316.665,341.484 314.132 C 342.529 312.887,343.517 311.809,343.677 311.738 C 343.838 311.667,343.969 311.369,343.969 311.076 C 343.969 310.784,344.188 310.404,344.455 310.233 C 344.997 309.887,347.860 306.403,347.860 306.091 C 347.860 305.981,348.447 305.270,349.164 304.509 C 349.882 303.748,350.976 302.379,351.596 301.465 C 352.216 300.552,352.855 299.747,353.016 299.676 C 353.176 299.604,353.307 299.378,353.307 299.174 C 353.307 298.795,354.662 296.753,355.544 295.800 C 355.811 295.512,356.134 294.863,356.260 294.359 C 356.387 293.854,356.737 293.347,357.039 293.231 C 357.341 293.115,357.588 292.833,357.588 292.603 C 357.588 292.373,357.766 291.974,357.984 291.715 C 359.566 289.839,359.922 289.313,359.922 288.851 C 359.922 288.563,360.094 288.327,360.304 288.327 C 360.514 288.327,360.795 287.889,360.930 287.354 C 361.064 286.819,361.316 286.381,361.490 286.381 C 361.664 286.381,361.918 285.871,362.055 285.247 C 362.192 284.622,362.556 284.015,362.864 283.897 C 363.172 283.779,363.424 283.414,363.424 283.086 C 363.424 282.758,363.580 282.490,363.771 282.490 C 363.962 282.490,364.238 282.011,364.386 281.424 C 364.533 280.838,364.771 280.269,364.914 280.160 C 365.478 279.731,369.638 271.601,369.645 270.914 C 369.648 270.647,369.806 270.428,369.997 270.428 C 370.188 270.428,370.461 269.946,370.604 269.358 C 370.748 268.769,371.356 267.237,371.956 265.953 C 373.962 261.658,374.319 260.781,374.319 260.155 C 374.319 259.813,374.486 259.533,374.691 259.533 C 374.895 259.533,375.183 258.876,375.330 258.074 C 375.478 257.271,375.705 256.527,375.834 256.420 C 375.964 256.313,376.481 255.000,376.983 253.502 C 377.485 252.004,378.141 250.226,378.442 249.552 C 378.742 248.878,378.988 248.109,378.988 247.844 C 378.988 247.579,379.502 245.680,380.131 243.623 C 380.759 241.566,381.395 239.183,381.543 238.327 C 381.692 237.471,381.949 236.595,382.114 236.381 C 382.280 236.167,382.541 234.942,382.695 233.658 C 382.849 232.374,383.109 231.148,383.273 230.934 C 383.437 230.720,383.697 229.582,383.852 228.405 C 384.007 227.228,384.268 226.089,384.432 225.875 C 384.596 225.661,384.854 224.261,385.005 222.763 C 385.156 221.265,385.526 218.375,385.828 216.342 C 386.130 214.309,386.378 211.649,386.379 210.432 C 386.380 209.214,386.556 208.109,386.770 207.977 C 387.254 207.678,387.311 176.015,386.829 175.717 C 386.647 175.605,386.395 173.975,386.269 172.095 C 385.909 166.735,384.065 155.318,383.266 153.502 C 383.077 153.074,382.806 151.761,382.663 150.584 C 382.520 149.407,382.270 148.268,382.108 148.054 C 381.946 147.840,381.696 146.965,381.552 146.109 C 381.409 145.253,381.140 144.115,380.956 143.580 C 380.771 143.045,380.233 141.294,379.760 139.689 C 378.162 134.273,377.310 131.714,376.981 131.342 C 376.801 131.139,376.653 130.701,376.651 130.370 C 376.650 130.038,376.387 129.265,376.068 128.652 C 375.748 128.039,375.480 127.339,375.473 127.096 C 375.466 126.853,375.122 125.953,374.708 125.097 C 374.295 124.241,373.950 123.234,373.943 122.860 C 373.936 122.485,373.755 122.179,373.541 122.179 C 373.327 122.179,373.146 121.960,373.139 121.693 C 373.131 121.425,372.787 120.506,372.374 119.650 C 371.960 118.794,371.616 117.875,371.609 117.607 C 371.601 117.339,371.434 117.121,371.237 117.121 C 371.040 117.121,370.764 116.595,370.623 115.953 C 370.482 115.311,370.205 114.786,370.008 114.786 C 369.811 114.786,369.650 114.486,369.650 114.119 C 369.650 113.422,366.626 106.954,366.142 106.615 C 365.989 106.508,365.729 105.982,365.564 105.447 C 365.400 104.912,365.157 104.387,365.025 104.280 C 364.636 103.964,363.819 102.608,363.325 101.459 C 363.072 100.871,362.728 100.389,362.561 100.389 C 362.394 100.389,362.257 100.201,362.257 99.971 C 362.257 99.399,359.323 94.502,358.364 93.473 C 357.937 93.014,357.588 92.470,357.588 92.262 C 357.588 92.054,357.366 91.653,357.095 91.370 C 356.825 91.087,355.993 89.836,355.247 88.590 C 354.501 87.344,353.623 86.030,353.295 85.672 C 352.967 85.313,352.296 84.363,351.804 83.560 C 351.312 82.758,350.792 82.100,350.649 82.099 C 350.506 82.097,349.951 81.442,349.416 80.643 C 348.881 79.844,348.050 78.818,347.568 78.363 C 347.087 77.909,346.693 77.347,346.693 77.115 C 346.693 76.882,346.473 76.552,346.205 76.381 C 345.937 76.210,345.213 75.326,344.596 74.416 C 343.979 73.507,343.323 72.763,343.138 72.763 C 342.953 72.763,342.802 72.591,342.802 72.381 C 342.802 72.171,342.232 71.405,341.537 70.680 C 340.841 69.954,339.903 68.928,339.453 68.399 C 339.002 67.870,338.301 67.191,337.896 66.890 C 337.491 66.589,336.459 65.469,335.603 64.402 C 334.747 63.334,333.771 62.196,333.434 61.872 C 331.491 60.009,327.477 56.353,325.526 54.669 C 324.285 53.599,322.708 52.198,322.021 51.556 C 320.995 50.599,318.562 48.570,316.537 46.983 C 316.323 46.815,315.718 46.323,315.193 45.890 C 314.667 45.456,313.617 44.721,312.858 44.258 C 312.099 43.794,311.247 43.189,310.964 42.913 C 310.682 42.638,310.303 42.412,310.122 42.412 C 309.808 42.412,308.538 41.435,306.963 39.981 C 306.557 39.606,306.131 39.300,306.015 39.300 C 305.798 39.300,303.457 37.714,303.113 37.334 C 303.006 37.215,302.218 36.699,301.362 36.187 C 300.506 35.674,299.718 35.158,299.611 35.040 C 299.016 34.382,293.799 31.518,293.197 31.518 C 292.872 31.518,292.607 31.346,292.607 31.136 C 292.607 30.926,292.169 30.644,291.634 30.510 C 291.099 30.376,290.661 30.124,290.661 29.950 C 290.661 29.776,290.136 29.518,289.494 29.377 C 288.852 29.236,288.323 29.004,288.319 28.860 C 288.314 28.717,287.355 28.161,286.187 27.626 C 285.019 27.091,284.059 26.536,284.055 26.393 C 284.050 26.249,283.521 26.016,282.879 25.875 C 282.237 25.734,281.712 25.472,281.712 25.292 C 281.712 25.112,281.187 24.849,280.545 24.708 C 279.903 24.567,279.377 24.291,279.377 24.094 C 279.377 23.897,279.159 23.729,278.891 23.722 C 278.624 23.715,277.704 23.371,276.848 22.957 C 275.992 22.544,275.073 22.199,274.805 22.192 C 274.538 22.185,274.319 22.033,274.319 21.855 C 274.319 21.677,273.750 21.338,273.054 21.102 C 272.359 20.866,270.249 20.136,268.366 19.480 C 266.484 18.824,264.689 18.288,264.378 18.288 C 264.067 18.288,263.813 18.128,263.813 17.933 C 263.813 17.738,263.113 17.460,262.257 17.315 C 261.401 17.171,260.700 16.912,260.700 16.741 C 260.700 16.571,259.912 16.313,258.949 16.168 C 257.986 16.024,257.198 15.758,257.198 15.577 C 257.198 15.396,256.323 15.128,255.253 14.981 C 254.183 14.833,253.307 14.574,253.307 14.405 C 253.307 14.235,252.524 13.979,251.565 13.835 C 250.607 13.691,249.732 13.425,249.620 13.244 C 249.507 13.062,248.540 12.793,247.471 12.646 C 246.401 12.499,245.439 12.237,245.332 12.064 C 245.225 11.891,244.087 11.628,242.802 11.479 C 241.518 11.330,240.467 11.079,240.467 10.921 C 240.467 10.649,238.871 10.309,233.074 9.347 C 231.683 9.116,229.757 8.754,228.794 8.542 C 221.790 7.006,189.765 6.428,177.269 7.612 M324.903 171.615 L 324.903 262.297 323.512 262.877 C 322.034 263.495,320.995 263.351,320.041 262.398 C 319.523 261.880,319.455 251.744,319.455 174.500 C 319.455 88.190,319.446 87.182,318.693 86.779 C 318.171 86.500,300.988 86.376,264.278 86.387 C 234.769 86.395,210.329 86.289,209.967 86.150 C 208.328 85.521,207.958 83.135,209.263 81.615 C 209.815 80.972,213.070 80.934,267.375 80.934 L 324.903 80.934 324.903 171.615 M143.580 84.470 C 145.613 84.912,147.889 85.410,148.638 85.577 C 150.420 85.974,157.120 88.264,158.366 88.901 C 158.901 89.175,159.864 89.616,160.506 89.881 C 163.916 91.289,172.614 96.452,174.319 98.081 C 174.640 98.387,176.133 99.621,177.637 100.823 C 208.485 125.463,213.478 174.442,188.448 206.880 C 185.445 210.771,185.435 210.412,188.619 212.984 C 190.063 214.151,192.780 216.367,194.656 217.908 C 197.615 220.340,198.208 220.675,199.131 220.441 C 203.762 219.265,206.140 220.057,210.117 224.097 C 213.330 227.362,224.002 238.324,233.644 248.265 C 237.061 251.787,242.752 257.650,246.290 261.292 C 253.159 268.363,260.503 275.966,268.658 284.447 C 271.430 287.330,276.350 292.403,279.593 295.720 C 290.633 307.014,290.844 309.630,281.518 319.650 C 273.356 328.418,269.364 328.520,261.327 320.164 C 257.160 315.833,253.830 312.377,243.021 301.167 C 240.029 298.064,235.473 293.336,232.896 290.660 C 230.319 287.984,225.496 282.987,222.179 279.556 C 218.862 276.124,214.397 271.481,212.257 269.237 C 210.117 266.993,204.776 261.415,200.389 256.842 C 196.002 252.268,191.222 247.282,189.767 245.761 C 186.097 241.926,185.461 240.429,185.709 236.207 L 185.904 232.879 181.428 226.167 C 176.707 219.088,176.521 218.919,175.053 220.378 C 174.163 221.262,168.117 225.349,166.198 226.363 C 158.855 230.245,150.734 233.453,148.230 233.460 C 147.684 233.462,147.045 233.655,146.811 233.890 C 144.407 236.294,121.900 236.261,112.646 233.841 C 110.122 233.180,105.109 231.604,103.988 231.119 C 103.507 230.910,102.719 230.581,102.237 230.388 C 97.997 228.690,87.729 222.998,86.770 221.816 C 86.663 221.684,85.613 220.824,84.436 219.904 C 80.355 216.717,74.835 211.053,70.674 205.784 C 65.936 199.784,60.723 189.194,58.441 180.934 C 55.619 170.719,54.655 156.247,56.251 148.063 C 60.442 126.575,69.193 111.280,84.047 99.483 C 85.438 98.379,86.634 97.342,86.706 97.181 C 86.777 97.019,86.987 96.887,87.173 96.887 C 87.359 96.887,88.614 96.120,89.962 95.183 C 92.181 93.640,98.812 90.101,101.751 88.890 C 102.393 88.625,103.356 88.228,103.891 88.007 C 105.615 87.294,109.882 85.896,111.284 85.586 C 120.613 83.519,123.079 83.278,132.685 83.500 C 138.002 83.622,140.849 83.876,143.580 84.470 M124.514 93.611 C 117.748 94.180,110.272 96.157,104.085 99.015 C 102.449 99.771,101.027 100.389,100.925 100.389 C 100.115 100.389,90.752 106.904,87.860 109.480 C 76.715 119.409,69.886 131.511,66.534 147.276 C 64.765 155.595,65.314 169.407,67.723 177.237 C 71.796 190.472,78.050 200.694,87.111 208.929 C 90.059 211.608,95.791 215.953,96.378 215.953 C 96.517 215.953,96.908 216.192,97.246 216.483 C 97.825 216.982,100.563 218.409,105.453 220.759 C 106.633 221.326,107.868 221.790,108.196 221.790 C 108.525 221.790,108.960 221.935,109.163 222.113 C 109.498 222.406,112.355 223.254,115.953 224.128 C 123.859 226.050,135.746 226.019,144.358 224.055 C 146.959 223.462,149.910 222.576,150.676 222.158 C 151.047 221.956,151.602 221.790,151.909 221.790 C 152.215 221.790,152.962 221.543,153.568 221.242 C 154.174 220.941,156.070 220.027,157.782 219.212 C 165.947 215.323,176.794 206.461,181.076 200.178 C 191.379 185.063,194.987 173.261,194.394 156.615 C 194.061 147.298,191.962 138.517,188.305 131.146 C 187.669 129.864,186.976 128.416,186.766 127.929 C 186.363 126.996,186.238 126.789,184.017 123.356 C 180.761 118.325,179.740 117.072,175.108 112.427 C 168.508 105.808,162.807 101.897,154.864 98.543 C 149.944 96.465,146.479 95.439,140.104 94.175 C 137.885 93.734,127.512 93.360,124.514 93.611 M297.290 107.403 C 299.257 108.803,299.121 110.898,297.012 111.700 C 294.863 112.517,240.052 112.194,238.927 111.358 C 237.457 110.265,237.471 109.154,238.970 107.785 L 240.251 106.615 268.217 106.615 C 295.679 106.615,296.203 106.629,297.290 107.403 M165.463 130.248 C 168.836 133.616,171.595 136.600,171.595 136.879 C 171.595 137.157,169.702 139.348,167.387 141.747 C 165.073 144.146,161.702 147.683,159.897 149.607 C 154.542 155.315,149.536 160.577,144.348 165.953 C 136.221 174.375,123.682 187.540,120.444 191.051 C 115.619 196.283,115.553 196.314,114.084 194.077 C 113.190 192.718,106.371 183.648,103.307 179.744 C 102.665 178.926,101.089 176.846,99.805 175.121 C 98.521 173.396,96.683 170.940,95.720 169.662 C 94.757 168.385,92.685 165.586,91.115 163.442 C 87.805 158.921,87.570 159.791,93.279 155.408 C 95.371 153.803,98.023 151.754,99.174 150.856 C 102.827 148.004,102.552 148.132,103.330 148.911 C 103.932 149.513,106.637 153.005,109.113 156.376 C 109.524 156.935,110.312 157.983,110.864 158.704 C 111.416 159.425,112.130 160.402,112.451 160.875 C 117.090 167.711,116.786 167.640,121.297 162.926 C 123.387 160.742,127.741 156.240,130.973 152.921 C 138.374 145.320,151.729 131.216,156.809 125.635 C 158.741 123.514,158.691 123.487,165.463 130.248 M297.849 131.118 C 299.045 132.242,298.928 133.627,297.545 134.719 C 296.088 135.868,235.826 135.759,234.204 134.604 C 232.404 133.322,232.827 131.053,235.019 130.234 C 235.340 130.114,249.378 130.047,266.214 130.085 L 296.825 130.156 297.849 131.118 M297.673 153.311 C 299.327 154.197,299.071 157.343,297.270 158.254 C 296.521 158.633,289.935 158.745,267.978 158.749 L 239.653 158.755 238.698 157.800 C 237.102 156.204,237.798 153.529,239.981 152.871 C 241.200 152.502,296.957 152.928,297.673 153.311 M298.033 176.909 C 298.992 178.129,298.809 179.182,297.418 180.447 L 296.455 181.323 268.382 181.323 L 240.309 181.323 239.026 180.079 C 237.522 178.621,237.439 178.000,238.589 176.776 L 239.435 175.875 268.328 175.875 L 297.220 175.875 298.033 176.909 M297.287 202.993 C 299.148 204.266,299.243 204.901,297.825 206.585 L 296.818 207.782 279.194 207.782 L 261.571 207.782 260.357 206.541 C 258.888 205.038,258.869 204.764,260.132 203.401 L 261.121 202.335 278.723 202.335 C 294.619 202.335,296.418 202.398,297.287 202.993 " stroke="none" fill="#fbfbfb" fill-rule="evenodd"></path><path id="path2" d="M149.965 133.143 C 145.276 138.116,141.002 142.642,140.467 143.201 C 139.932 143.759,135.806 148.057,131.298 152.750 C 126.790 157.444,121.902 162.554,120.436 164.105 C 118.970 165.657,117.560 166.926,117.302 166.926 C 116.885 166.926,113.630 162.810,108.560 155.869 C 102.771 147.943,102.698 147.889,100.406 149.903 C 99.614 150.598,96.647 152.989,93.812 155.215 C 90.284 157.986,88.708 159.460,88.819 159.885 C 88.909 160.226,92.023 164.533,95.740 169.455 C 99.457 174.377,105.353 182.213,108.841 186.868 C 112.330 191.522,115.408 195.331,115.682 195.331 C 115.956 195.331,118.187 193.192,120.639 190.578 C 123.091 187.964,127.891 182.930,131.304 179.391 C 140.782 169.568,145.771 164.356,149.577 160.306 C 151.484 158.276,155.971 153.551,159.547 149.805 C 169.926 138.938,171.577 137.173,171.586 136.933 C 171.597 136.653,159.255 124.361,158.811 124.210 C 158.635 124.150,154.654 128.170,149.965 133.143 " stroke="none" fill="#f37b62" fill-rule="evenodd"></path><path id="path3" d="M267.607 81.225 L 324.514 81.326 324.514 171.242 L 324.514 261.159 323.638 261.926 L 322.763 262.692 323.834 262.040 L 324.904 261.388 324.806 171.258 L 324.708 81.128 267.704 81.126 L 210.700 81.125 267.607 81.225 M209.352 82.076 C 208.851 83.012,208.843 84.444,209.333 85.214 C 209.591 85.618,209.636 85.364,209.480 84.392 C 209.356 83.619,209.454 82.612,209.699 82.155 C 209.944 81.697,210.057 81.323,209.950 81.323 C 209.843 81.323,209.574 81.662,209.352 82.076 M128.127 83.946 C 129.365 84.023,131.291 84.022,132.407 83.944 C 133.523 83.866,132.510 83.802,130.156 83.803 C 127.802 83.804,126.889 83.868,128.127 83.946 M119.351 84.281 C 119.222 84.409,118.186 84.650,117.049 84.816 C 115.462 85.047,115.297 85.124,116.342 85.149 C 117.091 85.167,118.667 84.941,119.844 84.647 C 121.522 84.228,121.725 84.106,120.785 84.080 C 120.125 84.062,119.480 84.152,119.351 84.281 M140.078 84.615 C 141.255 84.926,142.831 85.165,143.580 85.146 C 145.078 85.106,143.669 84.791,139.689 84.275 C 138.008 84.057,138.024 84.071,140.078 84.615 M113.230 85.603 C 112.428 85.860,112.394 85.920,113.035 85.947 C 113.463 85.966,114.076 85.811,114.397 85.603 C 115.079 85.163,114.605 85.163,113.230 85.603 M145.525 85.603 C 145.846 85.811,146.459 85.971,146.887 85.959 L 147.665 85.938 146.887 85.603 C 145.724 85.103,144.752 85.103,145.525 85.603 M264.397 85.893 C 315.064 85.984,318.906 86.037,319.358 86.649 C 319.744 87.172,319.844 105.365,319.844 174.540 C 319.844 257.163,319.880 261.800,320.525 262.288 C 321.105 262.726,321.134 262.722,320.720 262.257 C 320.334 261.825,320.233 243.701,320.233 174.410 C 320.233 114.975,320.105 86.868,319.831 86.356 C 319.435 85.616,318.460 85.605,264.675 85.699 L 209.922 85.795 264.397 85.893 M109.533 86.475 C 106.871 87.388,106.208 87.660,106.336 87.789 C 106.411 87.863,106.985 87.752,107.613 87.542 C 108.241 87.332,109.543 86.905,110.506 86.595 C 111.469 86.284,111.907 86.040,111.479 86.052 C 111.051 86.065,110.175 86.255,109.533 86.475 M149.416 86.540 C 151.987 87.498,153.755 88.009,153.922 87.842 C 154.014 87.750,153.344 87.453,152.434 87.182 C 151.523 86.911,150.376 86.533,149.884 86.341 C 149.393 86.149,148.780 86.001,148.523 86.012 C 148.265 86.023,148.667 86.261,149.416 86.540 M103.891 88.406 C 103.356 88.635,102.393 89.044,101.751 89.315 C 98.945 90.500,96.870 91.552,97.029 91.711 C 97.123 91.805,97.524 91.700,97.919 91.477 C 99.402 90.639,102.886 89.105,103.306 89.105 C 103.546 89.105,104.082 88.848,104.498 88.534 C 105.382 87.865,105.231 87.833,103.891 88.406 M155.425 88.534 C 155.840 88.848,156.486 89.105,156.861 89.105 C 157.235 89.105,157.650 89.280,157.782 89.494 C 157.914 89.708,158.319 89.879,158.681 89.874 C 159.042 89.870,158.726 89.591,157.977 89.256 C 157.228 88.920,156.311 88.486,155.939 88.292 C 154.898 87.746,154.581 87.896,155.425 88.534 M161.122 90.814 C 161.637 91.299,164.324 92.615,164.480 92.459 C 164.583 92.356,163.916 91.910,163.000 91.467 C 161.419 90.703,160.762 90.475,161.122 90.814 M92.136 94.178 C 90.700 95.040,89.424 95.908,89.301 96.107 C 89.097 96.437,94.342 93.336,94.853 92.825 C 95.354 92.324,94.600 92.700,92.136 94.178 M128.502 92.890 C 129.304 92.974,130.618 92.974,131.420 92.890 C 132.223 92.807,131.566 92.738,129.961 92.738 C 128.356 92.738,127.699 92.807,128.502 92.890 M119.163 93.431 C 118.468 93.632,117.899 93.900,117.899 94.025 C 117.899 94.151,118.293 94.127,118.774 93.972 C 119.256 93.816,121.138 93.561,122.957 93.404 L 126.265 93.119 123.346 93.093 C 121.741 93.078,119.859 93.231,119.163 93.431 M137.160 93.378 C 138.872 93.552,140.710 93.811,141.245 93.955 C 142.151 94.199,142.165 94.183,141.440 93.727 C 141.008 93.455,139.190 93.198,137.354 93.150 L 134.047 93.063 137.160 93.378 M114.397 94.553 C 113.623 95.052,114.595 95.052,115.759 94.553 L 116.537 94.218 115.759 94.197 C 115.331 94.185,114.718 94.345,114.397 94.553 M143.612 94.303 C 143.701 94.380,144.300 94.561,144.942 94.704 C 145.794 94.895,145.952 94.859,145.525 94.570 C 145.000 94.215,143.222 93.967,143.612 94.303 M169.712 95.771 C 171.136 96.706,172.887 97.879,173.603 98.378 L 174.903 99.286 173.735 98.257 C 172.374 97.056,168.626 94.568,167.735 94.274 C 167.397 94.163,168.287 94.836,169.712 95.771 M147.276 95.341 C 150.095 96.113,150.375 96.145,149.080 95.547 C 148.360 95.214,147.397 94.960,146.940 94.981 C 146.313 95.012,146.395 95.100,147.276 95.341 M106.615 97.097 C 105.438 97.604,104.737 98.016,105.058 98.012 C 105.379 98.009,106.518 97.594,107.588 97.090 C 110.115 95.899,109.387 95.905,106.615 97.097 M151.751 96.725 C 152.500 97.080,153.417 97.524,153.788 97.712 C 154.160 97.900,154.685 98.053,154.956 98.052 C 155.516 98.049,153.871 97.134,152.713 96.805 C 152.291 96.685,151.595 96.473,151.167 96.334 C 150.739 96.195,151.002 96.371,151.751 96.725 M86.673 97.873 C 85.657 98.619,84.825 99.315,84.825 99.419 C 84.825 99.524,85.700 98.981,86.770 98.212 C 88.433 97.017,89.030 96.467,88.619 96.508 C 88.565 96.513,87.690 97.128,86.673 97.873 M101.385 99.429 C 100.414 100.163,100.774 100.159,102.193 99.419 C 102.806 99.099,103.045 98.842,102.724 98.847 C 102.403 98.853,101.800 99.115,101.385 99.429 M175.681 99.961 C 176.534 100.950,179.377 103.287,179.377 102.998 C 179.377 102.899,178.371 101.972,177.140 100.939 C 175.910 99.905,175.253 99.465,175.681 99.961 M82.934 100.791 C 81.727 101.796,82.272 101.785,83.551 100.778 C 84.096 100.350,84.386 100.006,84.196 100.013 C 84.007 100.020,83.439 100.370,82.934 100.791 M98.478 100.975 C 97.535 101.492,96.572 102.113,96.338 102.355 C 95.874 102.837,99.576 100.894,100.175 100.341 C 100.761 99.801,100.322 99.964,98.478 100.975 M161.089 100.924 C 161.089 101.016,161.713 101.458,162.475 101.908 C 163.237 102.357,163.751 102.548,163.617 102.333 C 163.357 101.911,161.089 100.648,161.089 100.924 M77.813 105.739 L 74.125 109.533 77.918 105.844 C 81.442 102.418,81.889 101.946,81.607 101.946 C 81.549 101.946,79.842 103.653,77.813 105.739 M164.235 102.850 C 164.324 102.919,165.010 103.371,165.759 103.855 L 167.121 104.734 165.953 103.731 C 165.311 103.179,164.625 102.727,164.429 102.726 C 164.233 102.725,164.146 102.780,164.235 102.850 M91.440 105.655 C 86.900 108.979,82.084 113.918,77.320 120.136 C 77.115 120.404,77.035 120.623,77.141 120.623 C 77.248 120.623,78.389 119.260,79.677 117.595 C 82.480 113.972,88.468 108.165,92.000 105.644 C 94.187 104.084,94.888 103.475,94.455 103.510 C 94.402 103.514,93.045 104.479,91.440 105.655 M179.767 103.610 C 179.767 103.684,180.336 104.161,181.031 104.670 C 181.814 105.243,182.085 105.337,181.744 104.917 C 181.226 104.279,179.767 103.314,179.767 103.610 M167.704 105.122 C 168.025 105.437,170.017 107.172,172.129 108.976 C 175.414 111.781,178.334 114.935,182.410 120.080 C 182.901 120.699,182.781 120.418,182.143 119.455 C 180.079 116.340,176.131 111.956,172.753 109.028 C 169.710 106.391,166.350 103.791,167.704 105.122 M239.208 108.215 L 237.938 109.427 239.216 108.424 L 240.493 107.421 268.204 107.468 C 283.640 107.494,296.259 107.670,296.693 107.864 C 297.459 108.209,297.459 108.205,296.716 107.609 C 296.048 107.074,292.732 107.004,268.220 107.004 L 240.479 107.004 239.208 108.215 M186.339 110.603 C 187.906 112.476,189.269 114.008,189.367 114.008 C 189.639 114.008,185.009 108.416,184.200 107.768 C 183.809 107.455,184.771 108.731,186.339 110.603 M73.307 110.603 C 71.768 112.379,69.906 114.914,70.335 114.649 C 70.579 114.498,71.573 113.329,72.545 112.051 C 74.328 109.707,74.706 108.988,73.307 110.603 M238.738 110.603 L 239.389 111.673 268.041 111.578 L 296.693 111.484 268.154 111.381 L 239.615 111.279 238.850 110.406 L 238.086 109.533 238.738 110.603 M191.874 118.093 C 192.776 119.591,193.685 120.992,193.893 121.206 C 194.595 121.927,192.032 117.499,191.128 116.429 C 190.636 115.846,190.972 116.595,191.874 118.093 M67.235 118.969 C 66.036 120.787,65.289 122.179,65.512 122.179 C 65.605 122.179,66.027 121.595,66.448 120.881 C 66.869 120.167,67.519 119.116,67.893 118.546 C 68.266 117.976,68.488 117.510,68.384 117.510 C 68.281 117.510,67.764 118.166,67.235 118.969 M73.819 125.570 C 73.014 126.977,72.413 128.185,72.483 128.255 C 72.553 128.325,73.271 127.233,74.078 125.829 C 74.886 124.425,75.487 123.217,75.414 123.144 C 75.341 123.071,74.623 124.163,73.819 125.570 M196.383 126.254 C 196.958 127.425,197.493 128.318,197.573 128.238 C 197.748 128.063,195.785 124.125,195.523 124.125 C 195.422 124.125,195.809 125.083,196.383 126.254 M185.998 125.756 C 185.990 126.108,187.576 128.794,187.792 128.794 C 187.883 128.794,187.697 128.312,187.378 127.724 C 186.585 126.259,186.005 125.432,185.998 125.756 M62.175 128.609 C 62.054 129.032,61.837 129.728,61.693 130.156 C 61.548 130.584,61.714 130.442,62.062 129.840 C 62.410 129.239,62.627 128.543,62.544 128.294 C 62.461 128.045,62.295 128.187,62.175 128.609 M197.693 128.988 C 197.693 129.202,197.943 129.815,198.249 130.350 C 198.555 130.885,198.805 131.148,198.805 130.934 C 198.805 130.720,198.555 130.107,198.249 129.572 C 197.943 129.037,197.693 128.774,197.693 128.988 M71.040 130.799 C 70.463 131.956,70.211 133.032,70.610 132.632 C 70.914 132.328,72.007 129.572,71.824 129.572 C 71.729 129.572,71.377 130.124,71.040 130.799 M265.991 130.735 C 298.581 130.946,298.054 130.913,298.054 132.700 C 298.054 133.084,297.573 133.776,296.984 134.238 C 296.396 134.699,296.177 134.950,296.498 134.795 C 298.624 133.765,298.974 132.380,297.418 131.157 C 296.399 130.354,296.231 130.351,265.804 130.443 L 235.214 130.535 265.991 130.735 M188.730 130.957 C 188.754 131.609,189.856 133.297,189.857 132.685 C 189.858 132.364,189.601 131.761,189.287 131.346 C 188.973 130.930,188.722 130.755,188.730 130.957 M234.327 134.060 C 234.909 134.672,235.455 135.094,235.540 134.999 C 235.625 134.903,235.149 134.402,234.482 133.886 L 233.268 132.946 234.327 134.060 M189.897 133.516 C 189.889 133.652,190.139 134.352,190.452 135.072 C 190.764 135.792,191.021 136.119,191.022 135.798 C 191.023 135.237,189.925 133.009,189.897 133.516 M69.411 134.533 C 69.294 134.908,69.037 135.616,68.840 136.108 C 68.643 136.599,68.494 137.212,68.507 137.470 C 68.521 137.727,68.714 137.500,68.936 136.965 C 69.550 135.487,70.006 133.852,69.805 133.852 C 69.706 133.852,69.529 134.159,69.411 134.533 M250.875 134.922 C 259.061 134.981,272.456 134.981,280.642 134.922 C 288.828 134.863,282.130 134.815,265.759 134.815 C 249.387 134.815,242.690 134.863,250.875 134.922 M59.467 135.798 C 59.344 136.333,59.123 137.121,58.975 137.549 C 58.827 137.977,58.990 137.835,59.338 137.234 C 59.686 136.633,59.907 135.846,59.830 135.483 C 59.729 135.014,59.625 135.104,59.467 135.798 M200.395 136.414 C 200.398 136.824,200.579 137.422,200.796 137.743 C 201.084 138.169,201.121 138.012,200.930 137.160 C 200.610 135.729,200.387 135.418,200.395 136.414 M58.199 140.300 C 58.056 140.870,58.014 141.412,58.106 141.504 C 58.197 141.595,58.389 141.204,58.533 140.634 C 58.676 140.063,58.718 139.522,58.626 139.430 C 58.534 139.338,58.342 139.730,58.199 140.300 M66.965 141.906 C 66.684 142.756,66.541 143.786,66.645 144.196 C 66.780 144.723,66.849 144.620,66.881 143.846 C 66.906 143.243,67.113 142.402,67.340 141.976 C 67.568 141.550,67.692 141.013,67.615 140.782 C 67.538 140.551,67.245 141.056,66.965 141.906 M192.656 141.634 C 192.648 141.741,192.884 142.704,193.182 143.774 C 193.509 144.953,193.725 145.336,193.731 144.747 C 193.738 143.958,192.705 140.968,192.656 141.634 M57.641 142.802 C 57.606 143.337,57.487 144.212,57.377 144.747 L 57.176 145.720 57.594 144.762 C 57.824 144.235,57.943 143.360,57.858 142.817 L 57.704 141.829 57.641 142.802 M202.362 144.390 C 202.377 145.122,202.541 146.070,202.727 146.498 C 202.944 146.999,202.984 146.582,202.839 145.331 C 202.572 143.017,202.324 142.529,202.362 144.390 M66.001 145.735 C 65.868 146.083,65.777 146.747,65.799 147.211 C 65.824 147.744,65.956 147.555,66.158 146.695 C 66.498 145.249,66.405 144.682,66.001 145.735 M56.900 147.082 C 56.900 147.831,56.980 148.137,57.078 147.763 C 57.175 147.388,57.175 146.775,57.078 146.401 C 56.980 146.026,56.900 146.333,56.900 147.082 M194.026 148.054 C 194.162 149.125,194.336 150.073,194.413 150.162 C 194.746 150.549,194.503 147.219,194.160 146.693 C 193.900 146.294,193.858 146.726,194.026 148.054 M203.211 148.833 C 203.215 149.689,203.295 149.993,203.388 149.509 C 203.481 149.025,203.478 148.325,203.380 147.953 C 203.283 147.581,203.207 147.977,203.211 148.833 M65.428 149.465 C 65.396 150.027,65.283 151.077,65.176 151.800 L 64.983 153.113 65.393 151.807 C 65.618 151.089,65.731 150.038,65.644 149.472 L 65.486 148.444 65.428 149.465 M56.208 151.150 C 56.059 152.142,56.033 153.050,56.150 153.166 C 56.266 153.283,56.484 152.567,56.632 151.574 C 56.781 150.582,56.808 149.674,56.691 149.557 C 56.574 149.441,56.357 150.157,56.208 151.150 M194.819 153.502 C 194.939 155.000,195.103 156.299,195.184 156.388 C 195.455 156.687,195.290 153.908,194.943 152.335 C 194.680 151.138,194.651 151.409,194.819 153.502 M203.696 159.339 C 203.696 163.833,203.815 166.722,203.959 165.759 C 204.290 163.555,204.285 156.136,203.950 153.307 C 203.811 152.130,203.696 154.844,203.696 159.339 M238.776 154.019 C 238.422 154.410,238.132 154.887,238.132 155.078 C 238.132 155.270,238.405 155.037,238.738 154.561 L 239.344 153.696 268.262 153.696 C 300.002 153.696,298.333 153.567,297.975 156.007 C 297.882 156.640,297.950 157.069,298.125 156.960 C 298.712 156.598,298.452 154.603,297.732 153.951 C 296.576 152.905,239.725 152.970,238.776 154.019 M55.796 159.339 C 55.796 162.335,55.857 163.509,55.931 161.948 C 56.005 160.387,56.005 157.936,55.930 156.500 C 55.856 155.065,55.795 156.342,55.796 159.339 M64.739 159.922 C 64.739 162.383,64.802 163.390,64.879 162.160 C 64.956 160.929,64.956 158.915,64.879 157.685 C 64.802 156.454,64.739 157.461,64.739 159.922 M195.012 163.078 C 194.973 163.851,194.857 165.339,194.753 166.385 L 194.564 168.288 194.963 166.732 C 195.183 165.875,195.299 164.387,195.222 163.424 C 195.098 161.880,195.074 161.839,195.012 163.078 M65.048 166.537 C 65.035 167.072,65.170 168.210,65.347 169.066 C 65.554 170.065,65.677 170.274,65.692 169.650 C 65.704 169.115,65.569 167.977,65.392 167.121 C 65.185 166.122,65.062 165.913,65.048 166.537 M56.086 167.121 C 56.086 167.763,56.236 168.638,56.420 169.066 C 56.705 169.730,56.755 169.672,56.755 168.677 C 56.755 168.035,56.604 167.160,56.420 166.732 C 56.135 166.068,56.086 166.125,56.086 167.121 M194.220 170.039 C 194.183 170.574,194.056 171.449,193.937 171.984 C 193.751 172.823,193.782 172.862,194.161 172.268 C 194.403 171.889,194.530 171.013,194.444 170.322 C 194.323 169.345,194.273 169.282,194.220 170.039 M202.978 171.012 C 202.361 174.838,202.337 176.110,202.930 173.541 C 203.251 172.150,203.464 170.574,203.403 170.039 C 203.332 169.418,203.178 169.770,202.978 171.012 M57.015 172.374 C 57.108 173.337,57.357 174.825,57.568 175.681 L 57.951 177.237 57.739 175.486 C 57.623 174.523,57.374 173.035,57.187 172.179 L 56.846 170.623 57.015 172.374 M65.803 171.984 C 65.785 172.519,65.940 173.220,66.148 173.541 C 66.628 174.284,66.628 173.484,66.148 171.984 L 65.836 171.012 65.803 171.984 M193.336 174.708 C 193.214 175.457,192.989 176.420,192.836 176.848 C 192.683 177.276,192.842 177.135,193.190 176.535 C 193.537 175.934,193.762 174.971,193.689 174.395 C 193.568 173.437,193.537 173.464,193.336 174.708 M66.577 175.344 C 66.555 175.801,66.809 176.764,67.142 177.485 C 67.740 178.779,67.708 178.499,66.936 175.681 C 66.695 174.800,66.607 174.717,66.577 175.344 M238.776 176.976 C 238.422 177.368,238.132 177.844,238.132 178.036 C 238.132 178.227,238.405 177.994,238.738 177.518 L 239.344 176.654 268.143 176.654 C 299.752 176.654,298.432 176.554,297.887 178.903 C 297.705 179.690,297.743 179.812,298.037 179.377 C 298.632 178.498,298.524 177.626,297.732 176.909 C 296.576 175.862,239.725 175.927,238.776 176.976 M58.004 178.090 C 58.092 179.100,58.700 179.957,58.728 179.109 C 58.743 178.640,58.580 178.148,58.366 178.016 C 58.152 177.883,57.989 177.917,58.004 178.090 M239.105 179.767 L 240.223 180.934 268.313 180.934 C 294.609 180.934,296.436 180.890,296.918 180.253 C 297.356 179.674,297.352 179.645,296.888 180.058 C 296.462 180.438,290.171 180.545,268.238 180.545 L 240.134 180.545 239.369 179.572 C 238.948 179.037,238.465 178.599,238.295 178.599 C 238.126 178.599,238.490 179.125,239.105 179.767 M59.381 182.685 C 59.701 184.116,59.924 184.426,59.916 183.431 C 59.913 183.020,59.733 182.422,59.515 182.101 C 59.227 181.675,59.191 181.832,59.381 182.685 M68.485 181.959 C 68.484 182.202,68.744 182.903,69.064 183.516 C 69.383 184.129,69.646 184.431,69.647 184.188 C 69.649 183.945,69.388 183.245,69.069 182.632 C 68.749 182.019,68.486 181.716,68.485 181.959 M200.343 182.794 C 200.215 183.568,200.272 183.931,200.488 183.715 C 200.684 183.519,200.779 182.944,200.699 182.438 C 200.577 181.659,200.522 181.714,200.343 182.794 M190.579 183.473 C 190.459 183.896,190.242 184.591,190.097 185.019 C 189.952 185.447,190.119 185.306,190.467 184.704 C 190.815 184.103,191.032 183.407,190.949 183.158 C 190.866 182.909,190.699 183.051,190.579 183.473 M60.301 185.567 C 60.482 186.197,60.834 187.032,61.083 187.423 C 61.504 188.081,61.517 188.076,61.263 187.354 C 61.113 186.926,60.903 186.179,60.798 185.695 C 60.693 185.210,60.465 184.725,60.290 184.617 C 60.115 184.509,60.120 184.937,60.301 185.567 M189.168 186.982 C 188.516 188.412,188.641 188.718,189.346 187.417 C 189.675 186.810,189.871 186.240,189.782 186.151 C 189.693 186.062,189.417 186.436,189.168 186.982 M70.430 186.636 C 70.428 187.166,72.066 190.320,72.248 190.138 C 72.317 190.070,71.936 189.153,71.402 188.100 C 70.868 187.048,70.431 186.389,70.430 186.636 M61.492 188.379 C 61.485 188.515,61.734 189.216,62.047 189.936 C 62.360 190.656,62.616 190.982,62.617 190.661 C 62.618 190.101,61.521 187.873,61.492 188.379 M186.965 191.440 C 186.633 192.082,186.449 192.607,186.556 192.607 C 186.663 192.607,187.022 192.082,187.354 191.440 C 187.686 190.798,187.870 190.272,187.763 190.272 C 187.656 190.272,187.297 190.798,186.965 191.440 M72.374 190.763 C 72.374 191.133,75.472 196.337,75.479 195.980 C 75.483 195.802,74.856 194.576,74.085 193.256 C 72.611 190.732,72.374 190.387,72.374 190.763 M195.802 193.983 C 194.904 195.795,194.253 197.276,194.356 197.276 C 194.616 197.276,197.748 191.003,197.575 190.830 C 197.498 190.754,196.700 192.172,195.802 193.983 M184.108 196.287 C 183.661 197.045,183.364 197.665,183.450 197.665 C 183.754 197.665,185.295 195.282,185.110 195.097 C 185.006 194.993,184.555 195.529,184.108 196.287 M66.148 198.183 C 66.148 198.674,70.440 204.976,71.143 205.519 C 71.744 205.983,71.745 205.963,71.151 205.246 C 70.800 204.822,69.530 202.991,68.330 201.179 C 67.130 199.366,66.148 198.018,66.148 198.183 M182.051 199.319 C 179.939 202.348,175.297 207.419,172.213 210.066 C 170.375 211.643,168.872 213.031,168.872 213.149 C 168.872 213.268,169.266 213.017,169.747 212.592 C 170.229 212.166,171.829 210.779,173.304 209.510 C 176.503 206.756,183.965 198.054,183.127 198.054 C 183.020 198.054,182.536 198.624,182.051 199.319 M77.324 198.930 C 80.328 202.807,81.253 203.946,82.543 205.350 C 83.379 206.260,84.184 207.004,84.332 207.004 C 84.480 207.004,83.804 206.172,82.830 205.156 C 81.855 204.139,80.216 202.213,79.188 200.875 C 78.159 199.538,77.234 198.444,77.132 198.444 C 77.031 198.444,77.117 198.662,77.324 198.930 M191.864 201.070 C 190.979 202.515,190.653 203.217,191.139 202.632 C 192.090 201.487,193.903 198.444,193.635 198.444 C 193.545 198.444,192.748 199.625,191.864 201.070 M269.968 203.015 C 274.959 203.077,283.013 203.077,287.867 203.015 C 292.721 202.953,288.638 202.903,278.794 202.903 C 268.949 202.903,264.978 202.954,269.968 203.015 M297.323 203.696 C 297.669 204.125,298.050 204.737,298.168 205.058 C 298.350 205.554,298.387 205.548,298.413 205.021 C 298.430 204.680,298.050 204.067,297.568 203.660 C 296.700 202.925,296.698 202.925,297.323 203.696 M188.886 205.320 C 188.287 206.105,187.995 206.625,188.238 206.475 C 188.736 206.167,190.421 203.891,190.150 203.891 C 190.054 203.891,189.485 204.534,188.886 205.320 M259.665 204.498 C 259.434 205.099,261.261 207.393,261.970 207.393 C 262.161 207.393,261.764 206.928,261.090 206.361 C 260.279 205.679,259.926 205.084,260.051 204.610 C 260.279 203.736,259.989 203.653,259.665 204.498 M296.693 206.615 C 296.051 207.040,295.725 207.389,295.969 207.390 C 296.394 207.393,298.454 205.873,298.054 205.852 C 297.947 205.846,297.335 206.190,296.693 206.615 M72.329 207.330 C 72.761 207.938,73.427 208.682,73.807 208.984 C 74.187 209.286,73.918 208.789,73.209 207.879 C 71.764 206.027,71.111 205.620,72.329 207.330 M186.458 208.287 C 184.688 210.113,184.854 210.794,187.621 213.035 C 188.942 214.105,190.648 215.511,191.412 216.159 C 193.602 218.016,196.826 220.433,195.472 219.203 C 193.730 217.620,190.441 214.869,187.859 212.837 C 185.276 210.803,185.114 210.075,186.847 208.287 C 187.531 207.581,188.003 207.004,187.896 207.004 C 187.789 207.004,187.142 207.581,186.458 208.287 M271.135 207.295 C 275.697 207.358,283.051 207.358,287.478 207.295 C 291.904 207.233,288.171 207.182,279.183 207.182 C 270.195 207.182,266.573 207.233,271.135 207.295 M84.475 207.490 C 84.569 207.544,85.517 208.375,86.583 209.339 L 88.521 211.089 86.787 209.241 C 85.833 208.225,84.884 207.393,84.679 207.393 C 84.474 207.393,84.382 207.437,84.475 207.490 M79.055 214.494 C 81.574 217.009,83.838 219.066,84.088 219.066 C 84.337 219.066,84.036 218.689,83.418 218.227 C 82.801 217.766,80.536 215.708,78.386 213.655 C 75.132 210.548,75.244 210.688,79.055 214.494 M91.051 212.998 C 91.051 213.105,91.839 213.734,92.802 214.397 C 93.765 215.059,94.553 215.514,94.553 215.407 C 94.553 215.300,93.765 214.670,92.802 214.008 C 91.839 213.345,91.051 212.891,91.051 212.998 M164.069 216.156 C 160.753 218.255,160.243 218.765,162.948 217.277 C 164.787 216.266,167.424 214.390,166.926 214.447 C 166.819 214.460,165.533 215.228,164.069 216.156 M96.305 216.733 C 96.420 216.919,97.038 217.333,97.680 217.653 C 98.321 217.973,98.752 218.083,98.637 217.897 C 98.522 217.711,97.903 217.297,97.262 216.977 C 96.621 216.657,96.190 216.548,96.305 216.733 M99.254 218.441 C 99.692 218.853,102.445 220.253,102.570 220.128 C 102.649 220.048,101.999 219.602,101.126 219.136 C 99.679 218.363,98.842 218.053,99.254 218.441 M174.054 220.250 C 172.945 221.090,171.921 221.967,171.777 222.199 C 171.634 222.432,172.568 221.822,173.854 220.844 C 176.801 218.603,176.981 218.616,178.521 221.191 C 179.220 222.360,179.962 223.421,180.169 223.549 C 180.376 223.677,179.826 222.633,178.945 221.230 C 177.075 218.247,176.776 218.187,174.054 220.250 M85.453 220.303 C 87.178 221.606,87.512 221.709,86.202 220.536 C 85.552 219.953,84.865 219.471,84.675 219.466 C 84.486 219.460,84.836 219.837,85.453 220.303 M103.950 220.835 C 104.304 221.196,104.805 221.420,105.064 221.334 C 105.324 221.248,105.034 220.952,104.422 220.677 C 103.379 220.210,103.348 220.220,103.950 220.835 M155.253 220.850 C 154.710 221.151,154.538 221.386,154.864 221.383 C 155.185 221.379,155.787 221.119,156.203 220.805 C 157.139 220.096,156.561 220.124,155.253 220.850 M196.973 220.690 C 197.215 221.425,198.674 221.546,200.641 220.996 C 202.563 220.457,205.119 220.952,207.198 222.264 L 208.366 223.000 207.311 222.136 C 205.191 220.399,202.592 219.892,199.913 220.695 C 198.702 221.057,198.207 221.051,197.588 220.665 C 196.946 220.264,196.834 220.268,196.973 220.690 M152.654 221.917 C 151.974 222.168,151.287 222.506,151.127 222.669 C 150.733 223.069,153.404 222.161,153.872 221.737 C 154.325 221.324,154.213 221.341,152.654 221.917 M87.938 221.947 C 87.938 222.054,88.726 222.684,89.689 223.346 C 90.652 224.009,91.440 224.463,91.440 224.356 C 91.440 224.249,90.652 223.620,89.689 222.957 C 88.726 222.295,87.938 221.840,87.938 221.947 M110.311 223.235 C 110.739 223.338,111.256 223.580,111.459 223.773 C 111.662 223.966,112.188 224.118,112.626 224.109 C 113.211 224.098,113.075 223.942,112.115 223.526 C 111.395 223.213,110.519 222.978,110.169 223.002 C 109.722 223.034,109.764 223.103,110.311 223.235 M148.444 223.346 C 148.311 223.560,147.819 223.749,147.351 223.766 C 146.882 223.783,146.705 223.881,146.958 223.984 C 147.211 224.087,148.174 223.907,149.098 223.583 C 150.503 223.091,150.607 222.991,149.731 222.976 C 149.155 222.966,148.576 223.132,148.444 223.346 M114.591 224.514 C 114.724 224.728,115.216 224.890,115.684 224.875 C 116.506 224.849,116.509 224.836,115.759 224.514 C 114.688 224.053,114.307 224.053,114.591 224.514 M182.755 227.420 C 183.978 229.232,185.047 230.647,185.129 230.565 C 185.292 230.402,180.975 224.125,180.700 224.125 C 180.607 224.125,181.532 225.607,182.755 227.420 M92.218 224.923 C 93.232 225.613,94.942 226.486,94.942 226.313 C 94.942 226.097,92.256 224.512,91.904 224.520 C 91.756 224.523,91.897 224.704,92.218 224.923 M118.093 225.324 C 118.949 225.543,120.788 225.786,122.179 225.864 L 124.708 226.007 122.568 225.703 C 117.446 224.975,116.371 224.884,118.093 225.324 M140.746 225.143 C 140.614 225.275,139.140 225.523,137.471 225.696 L 134.436 226.009 137.354 225.870 C 140.705 225.711,144.293 225.026,142.185 224.947 C 141.526 224.923,140.878 225.011,140.746 225.143 M129.280 226.349 C 129.869 226.438,130.832 226.438,131.420 226.349 C 132.009 226.260,131.527 226.187,130.350 226.187 C 129.173 226.187,128.692 226.260,129.280 226.349 M216.762 231.809 C 219.634 234.752,222.160 237.227,222.374 237.309 C 222.588 237.392,220.319 234.984,217.332 231.959 C 214.345 228.934,211.819 226.459,211.720 226.459 C 211.620 226.459,213.889 228.867,216.762 231.809 M159.533 228.772 C 158.732 229.212,157.225 229.865,155.880 230.353 C 155.262 230.577,154.851 230.856,154.967 230.972 C 155.083 231.088,155.928 230.820,156.845 230.377 C 157.762 229.934,158.698 229.566,158.925 229.560 C 159.153 229.553,159.678 229.290,160.094 228.976 C 160.895 228.370,160.515 228.231,159.533 228.772 M101.698 229.769 C 102.311 230.089,103.012 230.349,103.255 230.348 C 103.498 230.346,103.195 230.084,102.582 229.764 C 101.969 229.444,101.269 229.184,101.026 229.185 C 100.783 229.187,101.085 229.449,101.698 229.769 M106.809 231.723 C 107.665 232.032,108.628 232.279,108.949 232.273 C 109.270 232.267,108.833 232.009,107.977 231.701 C 107.121 231.392,106.158 231.145,105.837 231.151 C 105.516 231.158,105.953 231.415,106.809 231.723 M151.751 231.737 C 151.002 232.020,150.652 232.259,150.973 232.268 C 151.294 232.277,152.257 232.032,153.113 231.723 C 153.969 231.415,154.319 231.176,153.891 231.192 C 153.463 231.208,152.500 231.453,151.751 231.737 M185.858 231.907 C 186.105 232.228,186.387 232.928,186.486 233.463 L 186.664 234.436 186.717 233.413 C 186.747 232.850,186.465 232.151,186.089 231.857 C 185.497 231.392,185.467 231.399,185.858 231.907 M112.095 233.213 C 112.184 233.289,112.870 233.464,113.619 233.601 C 114.577 233.777,114.808 233.738,114.397 233.468 C 113.869 233.123,111.709 232.883,112.095 233.213 M145.720 233.463 C 145.292 233.647,144.469 233.810,143.891 233.825 C 142.469 233.862,138.812 234.662,139.037 234.887 C 139.232 235.082,142.869 234.458,146.304 233.640 C 147.481 233.359,148.006 233.130,147.471 233.129 C 146.936 233.129,146.148 233.279,145.720 233.463 M115.861 234.127 C 116.345 234.220,117.045 234.217,117.417 234.119 C 117.789 234.022,117.393 233.946,116.537 233.950 C 115.681 233.955,115.377 234.034,115.861 234.127 M118.872 234.630 C 119.300 234.814,120.000 234.965,120.428 234.965 L 121.206 234.965 120.428 234.630 C 120.000 234.446,119.300 234.296,118.872 234.296 L 118.093 234.296 118.872 234.630 M186.123 237.354 C 186.123 238.959,186.192 239.616,186.276 238.813 C 186.360 238.011,186.360 236.697,186.276 235.895 C 186.192 235.092,186.123 235.749,186.123 237.354 M126.769 235.309 C 128.545 235.382,131.347 235.381,132.995 235.308 C 134.644 235.236,133.191 235.176,129.767 235.177 C 126.342 235.177,124.994 235.237,126.769 235.309 M229.006 244.453 C 231.993 247.501,234.611 250.064,234.825 250.147 C 235.039 250.231,232.682 247.737,229.588 244.605 C 226.494 241.473,223.875 238.911,223.769 238.911 C 223.663 238.911,226.020 241.405,229.006 244.453 M189.300 244.747 C 190.354 245.817,191.303 246.693,191.410 246.693 C 191.517 246.693,190.743 245.817,189.689 244.747 C 188.635 243.677,187.685 242.802,187.578 242.802 C 187.471 242.802,188.246 243.677,189.300 244.747 M238.584 254.280 C 240.651 256.420,243.087 258.959,243.998 259.922 C 244.909 260.885,245.462 261.323,245.226 260.895 C 244.991 260.467,242.555 257.928,239.812 255.253 C 235.696 251.238,235.482 251.068,238.584 254.280 M212.451 268.774 C 221.914 278.672,229.756 286.770,229.878 286.770 C 230.000 286.770,228.624 285.240,226.820 283.369 C 222.331 278.712,215.339 271.418,210.895 266.755 C 208.862 264.622,204.509 260.155,201.222 256.827 C 197.935 253.500,202.989 258.876,212.451 268.774 M251.556 267.671 C 259.127 275.652,266.126 282.786,265.755 282.143 C 265.556 281.799,261.317 277.387,256.335 272.338 C 251.353 267.289,249.202 265.189,251.556 267.671 M266.848 283.463 C 267.077 283.891,269.505 286.430,272.244 289.105 L 277.225 293.969 271.979 288.521 C 269.093 285.525,266.665 282.986,266.582 282.879 C 266.499 282.772,266.619 283.035,266.848 283.463 M235.603 292.996 C 237.305 294.708,238.785 296.109,238.892 296.109 C 238.999 296.109,237.694 294.708,235.992 292.996 C 234.290 291.284,232.810 289.883,232.703 289.883 C 232.596 289.883,233.901 291.284,235.603 292.996 M244.553 302.335 C 247.114 304.903,249.297 307.004,249.404 307.004 C 249.511 307.004,247.503 304.903,244.942 302.335 C 242.380 299.767,240.197 297.665,240.090 297.665 C 239.983 297.665,241.991 299.767,244.553 302.335 M283.074 300.389 C 284.561 301.887,285.864 303.113,285.971 303.113 C 286.078 303.113,284.950 301.887,283.463 300.389 C 281.976 298.891,280.673 297.665,280.566 297.665 C 280.459 297.665,281.587 298.891,283.074 300.389 M287.063 307.588 C 287.173 309.086,287.327 310.384,287.406 310.473 C 287.691 310.797,287.485 306.399,287.179 305.642 C 286.999 305.197,286.950 306.029,287.063 307.588 M257.983 316.148 C 260.868 319.144,263.296 321.683,263.379 321.790 C 263.462 321.897,263.342 321.634,263.113 321.206 C 262.885 320.778,260.456 318.239,257.717 315.564 L 252.736 310.700 257.983 316.148 M286.816 311.553 C 286.791 312.022,286.595 312.514,286.381 312.646 C 286.167 312.778,285.992 313.090,285.992 313.339 C 285.992 313.588,286.267 313.399,286.603 312.920 C 286.939 312.440,287.134 311.745,287.037 311.374 C 286.903 310.863,286.850 310.906,286.816 311.553 M280.717 319.177 C 277.947 322.020,275.331 324.561,274.903 324.825 C 274.475 325.088,274.650 325.048,275.292 324.735 C 276.586 324.106,278.219 322.614,281.099 319.432 C 282.152 318.268,283.721 316.571,284.584 315.661 C 285.448 314.752,286.064 314.008,285.954 314.008 C 285.844 314.008,283.487 316.334,280.717 319.177 M269.747 325.575 C 270.550 325.659,271.863 325.659,272.665 325.575 C 273.468 325.491,272.811 325.423,271.206 325.423 C 269.601 325.423,268.945 325.491,269.747 325.575 " stroke="none" fill="#7c7c7c" fill-rule="evenodd"></path><path id="path4" d="M209.263 81.615 C 207.958 83.135,208.328 85.521,209.967 86.150 C 210.329 86.289,234.769 86.395,264.278 86.387 C 300.988 86.376,318.171 86.500,318.693 86.779 C 319.446 87.182,319.455 88.190,319.455 174.500 C 319.455 268.902,319.318 262.569,321.375 263.221 C 322.275 263.507,324.903 262.481,324.903 261.843 C 324.903 261.545,324.574 261.604,323.944 262.018 C 322.814 262.758,320.972 262.840,320.311 262.179 C 319.951 261.819,319.844 241.836,319.844 174.605 C 319.844 115.304,319.716 87.257,319.442 86.745 C 319.046 86.006,318.024 85.992,264.606 85.992 C 215.640 85.992,210.111 85.931,209.561 85.381 C 208.711 84.531,208.797 82.643,209.728 81.712 C 210.156 81.284,210.358 80.934,210.177 80.934 C 209.996 80.934,209.585 81.240,209.263 81.615 M121.984 83.674 C 120.058 83.865,117.782 84.193,116.926 84.403 L 115.370 84.786 117.121 84.608 C 127.332 83.572,133.059 83.575,142.802 84.622 C 144.536 84.808,144.532 84.804,142.412 84.252 C 139.744 83.557,126.857 83.192,121.984 83.674 M112.451 85.275 C 110.569 85.788,105.032 87.536,104.086 87.917 C 103.658 88.089,102.803 88.433,102.187 88.682 C 101.571 88.931,101.165 89.233,101.286 89.353 C 101.406 89.474,101.735 89.425,102.017 89.246 C 103.134 88.534,108.238 86.851,112.433 85.809 C 113.814 85.467,115.025 85.105,115.124 85.006 C 115.409 84.721,113.945 84.868,112.451 85.275 M146.498 85.441 C 147.568 85.750,149.144 86.198,150.000 86.437 C 153.211 87.333,156.207 88.396,157.723 89.177 C 158.118 89.381,158.537 89.453,158.653 89.336 C 159.041 88.949,155.595 87.695,147.249 85.184 C 146.591 84.987,145.716 84.837,145.303 84.852 C 144.890 84.867,145.428 85.132,146.498 85.441 M96.109 91.517 C 94.076 92.600,91.310 94.251,89.962 95.186 C 88.614 96.122,87.359 96.887,87.173 96.887 C 86.987 96.887,86.777 97.019,86.706 97.181 C 86.634 97.342,85.438 98.379,84.047 99.483 C 71.156 109.721,61.711 124.672,57.597 141.350 C 57.134 143.227,56.823 145.065,56.906 145.436 C 56.988 145.806,57.192 145.321,57.357 144.358 C 61.078 122.744,76.868 101.730,97.082 91.489 C 99.222 90.405,100.710 89.525,100.389 89.533 C 100.068 89.542,98.142 90.435,96.109 91.517 M162.646 91.365 C 173.419 96.740,181.990 104.128,190.543 115.411 C 191.012 116.030,191.406 116.436,191.418 116.314 C 191.533 115.125,181.689 104.059,177.637 100.823 C 176.133 99.621,174.640 98.387,174.319 98.081 C 173.081 96.898,164.914 91.874,162.257 90.660 C 161.936 90.514,161.282 90.191,160.803 89.944 C 160.324 89.697,159.711 89.500,159.441 89.508 C 159.171 89.515,160.613 90.351,162.646 91.365 M123.930 93.229 C 120.756 93.421,112.996 95.008,111.581 95.753 C 111.210 95.949,110.597 96.115,110.219 96.123 C 109.505 96.137,107.313 97.238,107.951 97.262 C 108.151 97.270,109.289 96.939,110.480 96.527 C 122.193 92.474,137.729 92.474,149.442 96.527 C 151.750 97.325,152.728 97.483,151.721 96.893 C 150.491 96.174,148.048 95.487,140.789 93.822 C 138.858 93.378,127.845 92.991,123.930 93.229 M105.642 97.813 C 104.355 98.302,99.902 100.546,97.471 101.930 C 87.423 107.650,75.983 120.308,71.581 130.579 C 70.412 133.305,70.961 132.533,72.919 128.695 C 79.073 116.634,91.434 104.489,102.335 99.791 C 106.563 97.969,108.887 96.579,105.642 97.813 M153.696 97.959 C 165.822 103.595,175.994 111.444,181.304 119.261 C 184.764 124.353,185.603 125.670,185.603 126.003 C 185.603 126.202,185.882 126.595,186.222 126.877 C 187.066 127.578,185.153 124.157,182.943 121.012 C 176.322 111.591,167.392 103.934,157.782 99.439 C 156.070 98.638,154.365 97.824,153.994 97.630 C 153.622 97.435,153.097 97.287,152.826 97.301 C 152.556 97.315,152.947 97.611,153.696 97.959 M238.997 107.760 C 237.533 109.097,237.412 110.094,238.586 111.126 L 239.429 111.868 238.684 110.574 L 237.938 109.281 239.208 108.142 L 240.479 107.004 268.137 107.004 C 297.741 107.004,297.518 106.990,298.246 108.886 C 299.307 111.651,299.066 111.673,267.809 111.673 C 252.271 111.673,239.654 111.768,239.769 111.883 C 240.159 112.273,295.974 112.094,297.012 111.700 C 299.121 110.898,299.257 108.803,297.290 107.403 C 296.203 106.629,295.679 106.615,268.217 106.615 L 240.251 106.615 238.997 107.760 M193.114 119.455 C 194.041 121.060,195.302 123.375,195.918 124.600 C 196.535 125.825,197.109 126.756,197.195 126.670 C 197.433 126.432,193.356 118.840,192.331 117.614 C 191.836 117.022,192.188 117.850,193.114 119.455 M159.144 124.232 C 159.144 124.290,160.501 125.647,162.160 127.247 L 165.175 130.156 162.267 127.140 C 159.565 124.339,159.144 123.947,159.144 124.232 M197.902 128.696 C 199.662 132.734,201.256 138.045,203.070 145.914 L 203.473 147.665 203.294 145.914 C 202.831 141.401,198.422 127.237,197.479 127.237 C 197.362 127.237,197.552 127.894,197.902 128.696 M186.770 127.798 C 186.770 127.893,187.466 129.427,188.316 131.208 C 189.166 132.989,190.472 136.194,191.217 138.332 C 191.963 140.469,192.581 141.994,192.590 141.719 C 192.627 140.637,190.183 134.064,188.264 130.086 C 187.218 127.915,186.770 127.231,186.770 127.798 M151.542 131.226 L 149.611 133.268 151.654 131.338 C 152.777 130.276,153.696 129.356,153.696 129.295 C 153.696 129.004,153.336 129.327,151.542 131.226 M235.019 130.237 C 232.829 131.042,232.404 133.322,234.204 134.604 C 235.324 135.401,235.622 135.409,265.930 135.409 C 298.025 135.409,298.444 135.388,298.444 133.779 C 298.444 133.574,297.982 133.769,297.418 134.213 C 296.401 135.013,296.161 135.019,265.774 135.019 L 235.155 135.019 234.309 134.119 C 233.222 132.962,233.233 131.857,234.339 131.125 C 235.089 130.628,239.577 130.516,265.759 130.346 L 296.304 130.146 265.953 130.084 C 249.261 130.050,235.340 130.119,235.019 130.237 M167.899 133.074 C 169.385 134.572,170.689 135.798,170.796 135.798 C 170.903 135.798,169.775 134.572,168.288 133.074 C 166.801 131.576,165.498 130.350,165.391 130.350 C 165.284 130.350,166.412 131.576,167.899 133.074 M297.418 131.157 C 297.982 131.600,298.457 132.257,298.474 132.616 C 298.495 133.063,298.570 133.107,298.711 132.754 C 298.925 132.217,297.416 130.350,296.767 130.350 C 296.561 130.350,296.854 130.713,297.418 131.157 M70.102 133.674 C 69.853 134.220,69.657 134.878,69.665 135.135 C 69.673 135.392,69.939 135.008,70.255 134.280 C 70.920 132.748,70.779 132.189,70.102 133.674 M68.586 138.022 C 67.242 141.906,66.925 143.029,66.957 143.802 C 66.975 144.215,67.257 143.589,67.585 142.412 C 67.912 141.235,68.517 139.330,68.929 138.178 C 69.340 137.027,69.607 136.014,69.521 135.928 C 69.435 135.843,69.015 136.785,68.586 138.022 M146.084 137.062 L 144.942 138.327 146.206 137.184 C 147.385 136.119,147.650 135.798,147.349 135.798 C 147.282 135.798,146.713 136.367,146.084 137.062 M192.724 143.191 C 192.849 143.726,193.163 145.389,193.423 146.887 C 193.683 148.385,193.969 149.395,194.060 149.132 C 194.249 148.578,193.104 142.769,192.741 142.439 C 192.607 142.317,192.599 142.656,192.724 143.191 M66.348 145.914 C 63.954 156.567,65.035 172.245,68.854 182.252 C 69.618 184.255,69.700 183.047,68.946 180.888 C 66.731 174.540,65.932 170.076,65.513 161.703 C 65.266 156.764,65.717 150.789,66.607 147.209 C 66.829 146.315,66.930 145.352,66.832 145.068 C 66.734 144.785,66.516 145.165,66.348 145.914 M56.116 148.917 C 55.855 150.181,55.662 151.904,55.687 152.747 C 55.736 154.411,55.737 154.409,56.436 150.349 C 57.025 146.930,56.766 145.770,56.116 148.917 M203.812 151.167 C 204.158 155.592,204.151 163.734,203.798 168.288 L 203.527 171.790 204.064 168.482 C 204.752 164.248,204.755 155.234,204.069 150.973 L 203.538 147.665 203.812 151.167 M194.358 159.728 L 194.358 169.455 194.891 164.231 C 195.343 159.806,195.343 158.317,194.891 154.503 L 194.358 150.000 194.358 159.728 M239.981 152.871 C 237.798 153.529,237.102 156.204,238.698 157.800 L 239.653 158.755 267.978 158.749 C 289.935 158.745,296.521 158.633,297.270 158.254 C 299.071 157.343,299.327 154.197,297.673 153.311 C 296.957 152.928,241.200 152.502,239.981 152.871 M154.266 155.350 L 152.335 157.393 154.377 155.462 C 155.501 154.400,156.420 153.481,156.420 153.419 C 156.420 153.129,156.060 153.452,154.266 155.350 M297.732 153.951 C 298.561 154.701,298.643 156.320,297.902 157.296 C 297.126 158.318,239.972 158.353,238.844 157.333 C 237.958 156.531,237.926 154.959,238.776 154.019 C 239.725 152.970,296.576 152.905,297.732 153.951 M128.195 155.739 L 126.265 157.782 128.307 155.851 C 129.431 154.789,130.350 153.870,130.350 153.808 C 130.350 153.518,129.990 153.841,128.195 155.739 M147.471 162.451 C 146.526 163.414,145.840 164.202,145.947 164.202 C 146.054 164.202,146.915 163.414,147.860 162.451 C 148.805 161.488,149.491 160.700,149.384 160.700 C 149.277 160.700,148.416 161.488,147.471 162.451 M119.434 164.883 L 118.093 166.342 119.553 165.001 C 120.911 163.753,121.191 163.424,120.893 163.424 C 120.828 163.424,120.172 164.081,119.434 164.883 M55.716 166.342 C 55.694 167.412,55.926 169.339,56.232 170.623 L 56.789 172.957 56.578 170.817 C 56.462 169.640,56.230 167.714,56.062 166.537 L 55.756 164.397 55.716 166.342 M193.774 170.134 C 193.774 170.258,193.514 171.720,193.196 173.382 C 192.684 176.057,192.650 178.179,193.156 175.824 C 193.891 172.409,194.200 170.335,194.003 170.138 C 193.877 170.012,193.774 170.011,193.774 170.134 M138.111 172.276 L 136.770 173.735 138.230 172.394 C 139.032 171.657,139.689 171.000,139.689 170.935 C 139.689 170.638,139.359 170.918,138.111 172.276 M202.918 173.541 C 202.769 174.426,202.734 175.237,202.841 175.344 C 202.948 175.451,203.158 174.815,203.307 173.930 C 203.457 173.045,203.492 172.234,203.385 172.127 C 203.278 172.020,203.068 172.656,202.918 173.541 M56.875 174.125 C 56.882 174.553,57.027 175.340,57.198 175.875 L 57.510 176.848 57.521 175.875 C 57.528 175.340,57.382 174.553,57.198 174.125 L 56.864 173.346 56.875 174.125 M201.793 178.446 C 200.894 181.899,200.594 184.052,201.365 181.518 C 201.690 180.447,202.150 178.936,202.387 178.158 C 202.625 177.380,202.745 176.523,202.655 176.254 C 202.565 175.984,202.178 176.971,201.793 178.446 M238.589 176.776 C 237.439 178.000,237.522 178.621,239.026 180.079 L 240.309 181.323 268.351 181.323 C 298.548 181.323,298.444 181.330,298.444 179.333 C 298.444 179.126,297.964 179.402,297.378 179.945 L 296.311 180.934 268.267 180.934 L 240.223 180.934 239.178 179.843 C 237.951 178.562,237.864 177.795,238.844 176.909 C 239.970 175.889,296.617 175.925,297.829 176.946 C 298.637 177.626,298.637 177.626,297.897 176.751 L 297.156 175.875 268.295 175.875 L 239.435 175.875 238.589 176.776 M57.771 178.016 C 58.111 180.052,59.480 184.803,59.931 185.508 C 60.324 186.123,60.347 186.114,60.174 185.409 C 59.671 183.363,57.600 176.991,57.771 178.016 M191.245 180.647 C 189.319 186.565,185.965 193.007,181.076 200.178 C 176.021 207.594,163.642 217.082,153.938 220.980 C 153.322 221.227,152.915 221.527,153.034 221.646 C 153.153 221.765,154.970 221.032,157.073 220.017 C 173.721 211.977,185.546 198.447,191.829 180.250 C 192.291 178.910,192.612 177.645,192.541 177.438 C 192.470 177.231,191.887 178.675,191.245 180.647 M128.016 182.685 C 127.070 183.648,126.385 184.436,126.492 184.436 C 126.599 184.436,127.460 183.648,128.405 182.685 C 129.350 181.722,130.036 180.934,129.929 180.934 C 129.822 180.934,128.961 181.722,128.016 182.685 M69.679 184.047 C 69.677 184.607,70.775 186.835,70.803 186.329 C 70.811 186.193,70.561 185.492,70.249 184.772 C 69.936 184.052,69.680 183.726,69.679 184.047 M200.011 184.602 C 199.791 185.180,199.611 185.812,199.611 186.006 C 199.611 186.200,199.199 187.283,198.695 188.413 C 197.531 191.022,197.250 191.829,197.503 191.829 C 197.910 191.829,200.881 184.020,200.586 183.725 C 200.490 183.629,200.231 184.023,200.011 184.602 M60.548 187.160 C 61.447 190.731,67.326 201.544,70.674 205.784 C 74.835 211.053,80.355 216.717,84.436 219.904 C 85.613 220.824,86.663 221.684,86.770 221.816 C 87.724 222.992,98.342 228.878,102.140 230.336 C 102.568 230.501,103.356 230.829,103.891 231.067 C 105.700 231.869,110.833 233.463,111.547 233.444 C 112.199 233.427,110.881 232.931,107.393 231.880 C 92.233 227.313,76.961 215.247,67.242 200.157 C 66.378 198.815,64.544 195.140,60.949 187.549 C 60.538 186.681,60.392 186.540,60.548 187.160 M70.817 186.934 C 70.817 187.301,74.466 194.041,75.763 196.071 C 80.303 203.177,86.797 209.876,94.028 214.912 C 97.227 217.139,98.166 217.609,97.276 216.537 C 97.010 216.216,96.642 215.953,96.458 215.953 C 95.803 215.953,90.242 211.774,87.111 208.929 C 81.462 203.796,76.274 196.983,72.879 190.242 C 71.341 187.188,70.817 186.347,70.817 186.934 M121.380 189.786 L 120.039 191.245 121.498 189.904 C 122.301 189.167,122.957 188.510,122.957 188.445 C 122.957 188.148,122.628 188.428,121.380 189.786 M196.724 192.899 C 196.594 193.305,195.372 195.595,194.008 197.986 C 192.643 200.378,191.589 202.335,191.666 202.335 C 192.188 202.335,197.491 192.692,197.153 192.355 C 197.046 192.247,196.853 192.492,196.724 192.899 M260.834 202.632 C 260.587 202.790,268.480 202.870,278.375 202.810 C 296.146 202.703,296.378 202.712,297.404 203.519 C 298.694 204.533,298.713 205.213,297.489 206.438 L 296.533 207.393 279.079 207.393 L 261.624 207.393 260.493 206.213 C 259.466 205.140,259.412 204.953,259.899 204.170 C 260.390 203.382,260.381 203.353,259.790 203.841 C 258.869 204.603,258.980 205.132,260.357 206.541 L 261.571 207.782 279.194 207.782 L 296.818 207.782 297.825 206.585 C 299.243 204.901,299.148 204.266,297.287 202.993 C 296.267 202.295,261.900 201.955,260.834 202.632 M189.202 205.350 C 188.127 206.795,186.877 208.310,186.425 208.718 C 184.979 210.022,185.403 210.905,188.775 213.619 C 190.504 215.010,193.255 217.248,194.889 218.592 C 197.189 220.485,198.080 220.998,198.833 220.866 C 199.368 220.772,200.472 220.567,201.288 220.410 C 203.023 220.075,205.470 220.734,207.198 222.002 C 208.311 222.818,220.434 234.925,222.181 236.965 C 222.639 237.500,225.760 240.739,229.116 244.163 C 235.228 250.400,253.464 269.248,261.866 278.016 C 264.328 280.584,268.641 285.049,271.452 287.938 C 288.021 304.971,287.714 304.562,287.411 309.174 C 287.177 312.727,284.613 316.390,277.821 322.870 C 273.600 326.898,268.519 326.749,264.202 322.471 C 259.162 317.475,238.831 296.416,217.901 274.514 C 210.334 266.595,201.504 257.401,198.278 254.082 C 195.052 250.762,191.143 246.691,189.591 245.034 C 188.040 243.377,186.772 242.153,186.775 242.314 C 186.779 242.625,187.894 243.814,200.431 256.884 C 204.795 261.434,210.117 266.993,212.257 269.237 C 214.397 271.481,218.862 276.124,222.179 279.556 C 225.496 282.987,230.319 287.984,232.896 290.660 C 235.473 293.336,240.029 298.064,243.021 301.167 C 253.830 312.377,257.160 315.833,261.327 320.164 C 269.364 328.520,273.356 328.418,281.518 319.650 C 290.844 309.630,290.633 307.014,279.593 295.720 C 276.350 292.403,271.430 287.330,268.658 284.447 C 260.503 275.966,253.159 268.363,246.290 261.292 C 242.752 257.650,237.061 251.787,233.644 248.265 C 224.002 238.324,213.330 227.362,210.117 224.097 C 206.140 220.057,203.762 219.265,199.131 220.441 C 198.208 220.675,197.615 220.340,194.656 217.908 C 192.780 216.367,190.063 214.151,188.619 212.984 C 185.435 210.411,185.444 210.771,188.457 206.880 C 191.009 203.582,191.601 202.724,191.322 202.724 C 191.231 202.724,190.278 203.906,189.202 205.350 M98.212 217.450 C 98.465 217.859,103.723 220.523,105.944 221.368 C 107.707 222.038,107.132 221.462,105.156 220.578 C 104.139 220.123,102.101 219.137,100.628 218.387 C 99.154 217.636,98.067 217.215,98.212 217.450 M175.437 219.712 C 174.948 220.304,174.977 220.312,175.784 219.810 C 176.596 219.304,176.742 219.352,177.659 220.428 L 178.653 221.595 177.959 220.331 C 177.196 218.943,176.262 218.713,175.437 219.712 M173.143 221.322 C 168.792 224.824,158.627 230.089,153.113 231.698 C 150.012 232.603,147.916 233.419,148.638 233.440 C 150.638 233.499,159.423 229.957,166.198 226.362 C 168.356 225.216,174.708 220.903,174.708 220.583 C 174.708 220.084,174.644 220.115,173.143 221.322 M108.540 222.402 C 109.278 222.723,110.154 222.911,110.486 222.821 C 110.860 222.720,110.766 222.641,110.237 222.613 C 109.768 222.588,109.276 222.393,109.144 222.179 C 109.012 221.965,108.520 221.797,108.051 221.805 C 107.379 221.817,107.483 221.944,108.540 222.402 M150.759 222.141 C 150.555 222.334,150.039 222.577,149.611 222.680 C 148.875 222.857,148.878 222.869,149.664 222.912 C 150.121 222.937,150.996 222.696,151.609 222.376 C 152.537 221.892,152.590 221.794,151.926 221.792 C 151.487 221.791,150.962 221.948,150.759 222.141 M178.838 222.179 C 179.007 222.500,180.630 224.951,182.444 227.626 L 185.743 232.490 185.770 236.653 C 185.790 239.688,185.945 240.953,186.341 241.322 C 186.799 241.749,186.830 241.706,186.536 241.051 C 186.344 240.623,186.187 238.514,186.187 236.365 L 186.187 232.459 183.159 228.000 C 180.266 223.739,178.185 220.936,178.838 222.179 M111.651 223.282 C 111.960 223.501,113.536 223.969,115.153 224.321 C 116.770 224.674,118.828 225.124,119.725 225.322 C 120.622 225.519,121.935 225.660,122.643 225.635 C 123.990 225.587,123.996 225.589,118.093 224.523 C 115.507 224.056,112.826 223.462,111.868 223.143 C 111.267 222.943,111.218 222.975,111.651 223.282 M146.109 223.608 C 145.039 223.913,143.025 224.351,141.634 224.581 C 136.958 225.354,135.681 225.675,138.132 225.460 C 141.979 225.124,147.784 223.908,148.424 223.305 C 148.893 222.864,148.574 222.906,146.109 223.608 M126.946 225.969 C 128.390 226.044,130.754 226.044,132.198 225.969 C 133.643 225.895,132.461 225.833,129.572 225.833 C 126.683 225.833,125.501 225.895,126.946 225.969 M113.230 233.878 C 118.550 236.258,144.626 236.223,146.830 233.833 C 147.179 233.454,147.106 233.411,146.498 233.635 C 144.083 234.524,136.003 235.359,129.767 235.363 C 124.008 235.367,121.004 235.057,113.619 233.694 C 112.384 233.466,112.348 233.483,113.230 233.878 " stroke="none" fill="#9d9d9d" fill-rule="evenodd"></path></g></svg>