
<svg version="1.0" xmlns="http://www.w3.org/2000/svg"
 width="890.000000pt" height="856.000000pt" viewBox="0 0 890.000000 856.000000"
 preserveAspectRatio="xMidYMid meet">

<g transform="translate(0.000000,856.000000) scale(0.100000,-0.100000)"
fill="#000000" stroke="none">
<path d="M3965 7100 c-170 -84 -508 -249 -1080 -525 -71 -35 -215 -104 -320
-155 -104 -51 -244 -118 -310 -150 -66 -32 -205 -99 -310 -150 -104 -51 -215
-103 -245 -117 -30 -14 -67 -34 -82 -45 l-28 -19 0 -2020 0 -2019 475 0 475 0
0 1635 0 1635 1665 0 1665 0 0 -1635 0 -1635 470 0 470 0 0 2019 0 2020 -27
19 c-16 10 -111 56 -212 101 -101 46 -223 101 -270 123 -47 22 -124 57 -171
78 -47 21 -114 51 -150 68 -36 17 -150 69 -255 117 -104 48 -266 122 -360 165
-93 43 -255 117 -360 165 -262 119 -347 158 -600 276 -282 130 -277 130 -440
49z"/>
<path d="M2800 3690 l0 -250 300 0 300 0 0 250 0 250 -300 0 -300 0 0 -250z"/>
<path d="M3530 3690 l0 -250 300 0 300 0 0 250 0 250 -300 0 -300 0 0 -250z"/>
<path d="M2800 2980 l0 -260 300 0 300 0 0 260 0 260 -300 0 -300 0 0 -260z"/>
<path d="M3530 2980 l0 -260 300 0 300 0 0 260 0 260 -300 0 -300 0 0 -260z"/>
<path d="M2800 2270 l0 -260 300 0 300 0 0 260 0 260 -300 0 -300 0 0 -260z"/>
<path d="M3530 2270 l0 -260 300 0 300 0 0 260 0 260 -300 0 -300 0 0 -260z"/>
</g>
</svg>
